<?xml version="1.0" encoding="UTF-8"?>
<svg version="1.1" xmlns="http://www.w3.org/2000/svg" width="449" height="472">
<path d="M0 0 C0.64984863 0.2254248 1.29969727 0.45084961 1.96923828 0.68310547 C14.60138825 5.21811812 26.31658063 12.59691871 35.27734375 22.66015625 C39.49491022 26.96461582 44.28500736 28.01098518 50 29.4375 C64.6208685 33.50637874 76.28739252 38.90479939 87 50 C87.87398438 50.89525391 87.87398438 50.89525391 88.765625 51.80859375 C93.26987718 56.73369777 96.52284346 62.43110354 99.0703125 68.5859375 C101.76492437 74.86080291 104.49554352 77.45230993 110.50390625 80.6484375 C118.92953651 85.21067235 123.97352803 92.03472397 126.75 101.125 C129.10168109 111.04530989 129.31778588 119.656346 127.58178711 129.62963867 C125.78820696 138.59501359 125.78820696 138.59501359 127.296875 147.359375 C129.27639544 149.97691124 129.27639544 149.97691124 131.59375 152.3359375 C134.57600233 155.63771687 136.37046847 159.08762748 138.3125 163.0625 C138.63710205 163.69986084 138.9617041 164.33722168 139.29614258 164.99389648 C146.4558702 179.55640027 147.64894796 195.94433607 142.625 211.4375 C138.88755632 221.9337087 132.66245385 230.75851998 124.5 238.3125 C120.4264888 242.16515819 119.62929847 245.54607996 119 251 C117.44910603 263.04460512 111.66585201 274.84858311 102.08203125 282.5390625 C86.95623918 293.28416069 71.49889149 296.70575194 53.34765625 294.5703125 C40.01464495 292.14067489 29.08040566 285.94229534 19 277 C19.33 277.99 19.66 278.98 20 280 C21.0967195 297.36772197 18.05374985 310.49575174 7.109375 324.40234375 C0.75780753 331.49331124 -7.35995477 335.33422358 -16 339 C-16.66 339 -17.32 339 -18 339 C-13.6899805 344.05312631 -8.20748985 347.62759727 -2 350 C1.08718488 349.72380164 2.62982292 349.25383571 5.1875 347.5 C10.69962865 344.56019805 16.7202043 344.33861457 22.6875 346.0625 C28.38003516 348.27906236 32.39929378 351.70565442 35.875 356.6875 C38.23251864 363.62908266 39.04835403 370.49586964 35.93359375 377.29296875 C32.68484846 383.2331432 28.3699445 386.75069977 22 389 C16.28997266 389.80092282 10.32517833 390.12134926 5.0625 387.4375 C0.14577144 383.52418543 -4.31530445 379.23337353 -6 373 C-6 371.68 -6 370.36 -6 369 C-7.258125 368.649375 -8.51625 368.29875 -9.8125 367.9375 C-19.36662035 364.76788661 -29.01271007 358.40562145 -34.625 350 C-35.74860249 348.33239087 -36.87353338 346.66567576 -38 345 C-38.45117188 344.27554687 -38.90234375 343.55109375 -39.3671875 342.8046875 C-41.53396053 340.40983309 -43.40405948 339.98045725 -46.5 339.125 C-61.49081878 334.42908086 -72.10938521 325.92148746 -79.59375 311.9765625 C-85.15337015 300.20869986 -86.25759041 285.37358795 -82.5 272.8125 C-82.02839121 271.53085945 -81.54145711 270.25373105 -81 269 C-82.3303125 269.23976563 -82.3303125 269.23976563 -83.6875 269.484375 C-98.72400518 271.61303688 -115.38749332 271.16296326 -130 267 C-131.27230469 266.67128906 -132.54460937 266.34257812 -133.85546875 266.00390625 C-158.02401157 259.41892242 -179.44213176 244.09999362 -193 223 C-197.0010396 223.56739889 -200.49798893 224.4490525 -204.25 225.9375 C-220.8721203 232.04041466 -240.8220739 232.43531382 -257.32421875 225.62890625 C-274.10107633 217.34967594 -286.60448413 202.85926664 -292.75 185.25 C-297.55058586 170.62495937 -295.73591559 154.70181457 -289.375 140.9375 C-282.8019303 128.6549756 -273.64099775 120.34507658 -262 113 C-259.7902832 112.36767578 -259.7902832 112.36767578 -258 112 C-258.04640625 110.98421875 -258.0928125 109.9684375 -258.140625 108.921875 C-258.65641249 92.71903338 -253.69498365 80.02136957 -243.37109375 67.4921875 C-232.67651005 56.25142243 -221.06417695 51.10866528 -206 49 C-204.77410156 49.08765625 -203.54820312 49.1753125 -202.28515625 49.265625 C-198.84221403 49.35851476 -198.84221403 49.35851476 -196.8125 46.65625 C-196.214375 45.6146875 -195.61625 44.573125 -195 43.5 C-184.0596172 25.70364398 -169.20840661 16.39604131 -149.37890625 10.54296875 C-131.33464268 6.42449151 -114.3926039 9.88627611 -97.27734375 15.9140625 C-96.19582031 16.27242187 -95.11429688 16.63078125 -94 17 C-93.17242187 17.30679688 -92.34484375 17.61359375 -91.4921875 17.9296875 C-87.59201856 18.03972361 -85.17933064 15.73835881 -82.1875 13.5 C-58.40106838 -3.20964614 -27.87932107 -9.71859788 0 0 Z M-31 23 C-30.23816406 23.65484375 -29.47632813 24.3096875 -28.69140625 24.984375 C-17.79416897 34.53828721 -9.98502642 45.3326209 -3 58 C-0.57099248 55.63846491 1.72164725 53.39175573 3.6875 50.625 C7.20474257 46.63245438 11.58354832 43.92463499 16 41 C13.37187785 33.88955908 4.1627524 29.51230459 -2.3984375 26.375 C-16.99212615 20.2411266 -16.99212615 20.2411266 -31 23 Z M-71.1875 36.875 C-71.86167969 37.40867188 -72.53585938 37.94234375 -73.23046875 38.4921875 C-75.08482862 40.03175958 -75.08482862 40.03175958 -77 42 C-77.44467072 49.70762583 -75.10134852 57.88323534 -70.4609375 64.04296875 C-65.6000595 69.24788149 -60.27996767 72.13685061 -53.4375 73.9375 C-46.19251758 74.06922695 -41.96078368 70.43294061 -36.796875 65.81640625 C-34.12822788 63.11886918 -34.12822788 63.11886918 -32 60 C-32.07318903 55.41836691 -34.21092976 53.24914506 -37.375 50.125 C-42.47406459 45.22989799 -47.85841035 41.46613667 -54 38 C-54.75796875 37.56558594 -55.5159375 37.13117188 -56.296875 36.68359375 C-62.13271545 33.5353114 -65.88222348 32.58562749 -71.1875 36.875 Z M-163 45 C-168.63266687 49.95814844 -173.87450424 54.81958718 -175.875 62.25 C-176.26050549 73.81516474 -168.08869116 83.06160243 -160.91796875 91.4296875 C-154.18171582 98.48148792 -145.98844624 104.21539106 -137 108 C-136.01 107.67 -135.02 107.34 -134 107 C-134.54269531 106.03320312 -135.08539063 105.06640625 -135.64453125 104.0703125 C-144.64492838 87.79206223 -148.28490073 73.05351276 -144.05859375 54.55078125 C-142.06143242 47.85181576 -138.86729132 41.80093698 -135 36 C-144.47958018 33.31908361 -155.53187828 39.37723506 -163 45 Z M-105 41 C-105.99 41.66 -106.98 42.32 -108 43 C-108 43.66 -108 44.32 -108 45 C-108.58523437 45.23074219 -109.17046875 45.46148437 -109.7734375 45.69921875 C-112.5667128 47.33107958 -113.80992328 49.14585645 -115.625 51.8125 C-116.51058594 53.09060547 -116.51058594 53.09060547 -117.4140625 54.39453125 C-120.55381433 59.55269498 -121.23836612 63.24741265 -121.125 69.3125 C-121.10695312 70.56675781 -121.08890625 71.82101563 -121.0703125 73.11328125 C-121.03550781 74.54220703 -121.03550781 74.54220703 -121 76 C-120.41992188 75.69964844 -119.83984375 75.39929688 -119.2421875 75.08984375 C-115.62233538 73.32770452 -112.8825377 72 -108.8125 72 C-104.86951014 73.40195195 -100.93487481 75.13025038 -99 79 C-98.95102053 80.53958788 -98.96327689 82.08137091 -99.0078125 83.62109375 C-99.67758888 102.6093097 -99.67758888 102.6093097 -91.0625 118.99609375 C-83.76298551 126.08823567 -75.03655379 129.07434893 -65 130 C-50.3761353 129.78173336 -35.71420271 125.30489609 -25 115 C-20.47767867 109.9123885 -19.83933869 106.86210928 -19.875 100.1875 C-19.87113281 99.47529297 -19.86726563 98.76308594 -19.86328125 98.02929688 C-19.87031567 94.22719071 -20.085292 90.69512993 -21 87 C-23.5831368 88.28150423 -26.15086746 89.59090286 -28.71484375 90.91015625 C-30.12231273 91.62776719 -31.52986724 92.34521038 -32.9375 93.0625 C-33.64068359 93.42666016 -34.34386719 93.79082031 -35.06835938 94.16601562 C-44.96377031 99.18327646 -55.60430638 99.37570842 -66.20703125 96.1015625 C-80.95409686 90.28523732 -91.12613777 80.08868125 -97.4765625 65.640625 C-100.13893218 58.63438901 -101.72538998 51.89727146 -102.54296875 44.44921875 C-102.69378906 43.64097656 -102.84460938 42.83273438 -103 42 C-103.66 41.67 -104.32 41.34 -105 41 Z M19.15625 70.0234375 C15.99699993 75.42404742 15.3269502 81.47753119 14.4375 87.5625 C14.1870919 89.2306032 13.93581507 90.89857625 13.68359375 92.56640625 C13.56741699 93.33742676 13.45124023 94.10844727 13.33154297 94.90283203 C12.95514129 97.28375284 12.50604638 99.6432697 12 102 C24.73667024 107.41182629 35.72068012 108.78926291 49 104 C56.35702198 100.09627405 61.81428369 93.37143262 65.5 86 C66.43613789 80.38317267 65.90353968 75.77361492 63.3125 70.6875 C57.97883226 64.48891317 51.11680413 61.5731373 43.10546875 60.67578125 C33.41062952 60.31486939 25.4346176 62.32148654 19.15625 70.0234375 Z M-226.8125 86.9375 C-231.83283225 93.96596515 -232.40972486 99.60822789 -232 108 C-228.27034861 110.03435531 -226.33094958 111 -222 111 C-220.24061298 108.86685585 -220.24061298 108.86685585 -218.75 106.0625 C-212.97326478 96.50819694 -206.40939502 89.99656117 -197 84 C-197.4979837 80.26512223 -197.87491756 78.18762365 -200 75 C-210.71129245 73.68841317 -219.87093247 79.18780968 -226.8125 86.9375 Z M84.60546875 101.78125 C83.78553471 103.01165409 82.98024679 104.25190603 82.1875 105.5 C72.58306904 119.71513058 60.76198766 127.16819935 44 131 C32.09613858 132.73755809 20.68004398 130.71356066 9.1574707 127.69213867 C7.84202271 127.34759644 7.84202271 127.34759644 6.5 126.99609375 C5.7265625 126.78138428 4.953125 126.5666748 4.15625 126.34545898 C1.74412914 125.9590062 0.27336453 126.12555775 -2 127 C-3.28436734 128.9837767 -3.28436734 128.9837767 -4 131 C-3.2471875 131.02578125 -2.494375 131.0515625 -1.71875 131.078125 C11.02658391 131.75870108 22.90657505 133.9618253 33.765625 140.92578125 C35.87231042 142.16409034 35.87231042 142.16409034 37.890625 141.875 C40.85506704 140.64530552 43.6595238 139.18130899 46.5 137.6875 C57.3877386 132.09103902 67.8085223 128.8084943 80.0625 128.875 C80.90216309 128.8762085 81.74182617 128.87741699 82.60693359 128.87866211 C88.42417037 128.91492917 94.16071537 129.22994175 99.9453125 129.87890625 C100.62335938 129.91886719 101.30140625 129.95882812 102 130 C104.22024734 127.77975266 103.27926141 122.85317728 103.3125 119.875 C103.34150391 119.03195313 103.37050781 118.18890625 103.40039062 117.3203125 C103.46080304 111.33483634 102.52654357 107.87566611 99 103 C96.26629239 100.55984488 93.18227549 99.24598958 89.578125 98.49609375 C86.68534406 98.78554331 86.68534406 98.78554331 84.60546875 101.78125 Z M-192.484375 111.34765625 C-199.6343169 118.88618195 -202.32760488 125.97454237 -202.21875 136.1796875 C-201.73201352 142.45511142 -199.39721236 147.46094208 -195 152 C-194.34 152 -193.68 152 -193 152 C-191.89665062 150.54477163 -190.8676691 149.03286578 -189.875 147.5 C-182.38677878 136.62753155 -173.62875063 130.81437532 -162 125 C-163.42529707 121.55988508 -165.05291172 119.96220591 -168.0625 117.8125 C-172.52296204 114.49777861 -176.27164477 110.78366449 -180.0546875 106.72265625 C-184.97140727 102.36869356 -188.75460291 107.8959812 -192.484375 111.34765625 Z M-259.98828125 143.8515625 C-266.66020758 150.79493765 -269.17622528 158.45386782 -269.5 168 C-269.11243604 178.75783611 -265.93244703 186.06767621 -258.41015625 193.7734375 C-249.50061314 202.00429581 -240.0769031 205.37572361 -227.8894043 204.99365234 C-216.2822478 204.33054219 -207.70348258 201.37952366 -198 195 C-197.91870302 189.33243889 -198.32304236 185.13883701 -202.125 180.75 C-203.39083747 179.47385021 -204.68254385 178.22278864 -206 177 C-206.57363281 176.43152344 -207.14726562 175.86304688 -207.73828125 175.27734375 C-211.85251197 171.42793708 -215.7141508 169.85004722 -221 168 C-223.66377818 165.87769075 -224.34391823 164.28711115 -225 161 C-225.10750253 159.61827635 -225.17624119 158.23312122 -225.2109375 156.84765625 C-225.23929688 156.07099609 -225.26765625 155.29433594 -225.296875 154.49414062 C-225.34882549 152.87718161 -225.39313653 151.25995852 -225.4296875 149.64257812 C-225.66989569 143.60234305 -226.88577956 140.17462674 -231.1875 135.75 C-242.25152712 128.86571646 -251.83257947 136.25666536 -259.98828125 143.8515625 Z M-166.87109375 157.5859375 C-169.67171957 160.76169302 -171.88516477 163.81813071 -172.11328125 168.15234375 C-170.29357602 171.17241594 -167.304225 172.20259206 -164.1875 173.5625 C-163.50896973 173.86551025 -162.83043945 174.16852051 -162.13134766 174.48071289 C-150.36028232 179.58445455 -137.91332809 182.43148665 -125.3125 178.5625 C-117.98500827 175.53709346 -112.30575458 170.39081556 -107.875 163.875 C-106.47042907 157.65475732 -106.58842046 151.3478229 -107 145 C-109.90834607 142.09165393 -119.07951027 143.75013705 -123.00415039 143.74902344 C-139.53022247 143.90379048 -154.30880555 146.17300793 -166.87109375 157.5859375 Z M-81 153 C-81.144375 153.721875 -81.28875 154.44375 -81.4375 155.1875 C-82.625 161.125 -83.8125 167.0625 -85 173 C-84.01 173.18175781 -83.02 173.36351562 -82 173.55078125 C-69.97818086 175.82151858 -69.97818086 175.82151858 -65.3125 177.75 C-62.26945199 179.13439366 -62.26945199 179.13439366 -59.9453125 178.953125 C-57.72209012 178.10803245 -57.72209012 178.10803245 -56.69140625 175.375 C-56.31886719 174.26125 -55.94632813 173.1475 -55.5625 172 C-53.76200486 166.91164417 -51.73614751 162.40048671 -48.91796875 157.8046875 C-47.77331171 155.89179679 -47.77331171 155.89179679 -48 153 C-48.99386719 153.16242188 -49.98773438 153.32484375 -51.01171875 153.4921875 C-60.81876646 154.88720861 -71.20938838 154.31796695 -81 153 Z M53 162 C51.58253598 166.25239206 53.45551056 168.893607 55.25 172.75 C55.88040985 174.14053366 56.51061974 175.53115799 57.140625 176.921875 C57.45064453 177.59798828 57.76066406 178.27410156 58.08007812 178.97070312 C59.4353212 181.96029455 60.71848434 184.97815443 62 188 C62.58378418 188.03963867 63.16756836 188.07927734 63.76904297 188.12011719 C79.75543499 189.26267867 91.84136708 190.31380798 103 203 C105.60026537 206.87481404 107.87740703 210.84618396 110 215 C113.20396437 214.29103153 113.20396437 214.29103153 114.5703125 211.41796875 C115.33988281 209.81888672 115.33988281 209.81888672 116.125 208.1875 C116.64320313 207.12917969 117.16140625 206.07085937 117.6953125 204.98046875 C121.70231297 195.8267521 120.51680973 186.58422017 117.40234375 177.28515625 C114.09050808 169.52678912 108.60256252 159.84638239 100.81640625 155.890625 C84.41538209 151.22898208 67.46078478 152.27505892 53 162 Z M-10 158 C-8.09536754 169.29413632 -5.43725547 181.4985918 4 189 C9.59412313 192.91588619 14.6525095 193.15341029 21.375 193.1875 C22.64085937 193.20167969 23.90671875 193.21585938 25.2109375 193.23046875 C29.18323775 192.98885461 32.24034042 192.22893265 36 191 C32.93863062 178.13687779 24.98501216 166.79625363 14.25 158.9375 C7.02616489 154.85509218 -2.43092288 155.00757416 -10 158 Z M-32 178 C-36.70112024 192.76050655 -34.68674283 206.19811577 -28 220 C-22.82276074 229.84448182 -14.86044945 237.58205441 -4.32421875 241.34375 C6.19493727 244.31386464 15.99372482 243.55610082 26 239 C32.74783023 234.47125488 37.94585555 229.01729515 40 221 C40 219.68 40 218.36 40 217 C39.24493164 217.01047363 38.48986328 217.02094727 37.71191406 217.03173828 C34.22464451 217.07382418 30.7374287 217.09949112 27.25 217.125 C25.46916016 217.15013672 25.46916016 217.15013672 23.65234375 217.17578125 C7.48247515 217.26414119 -4.89699089 214.58488536 -16.9375 203.25390625 C-23.63985219 195.92955546 -27.51848924 187.19311368 -31 178 C-31.33 178 -31.66 178 -32 178 Z M-171 198 C-170.42522532 207.96276113 -166.98797899 217.27385865 -159.4921875 224.0625 C-147.97961796 233.0127108 -135.99422838 239.07873892 -121.9375 242.9375 C-121.09098877 243.1737207 -120.24447754 243.40994141 -119.37231445 243.65332031 C-118.57784912 243.85924805 -117.78338379 244.06517578 -116.96484375 244.27734375 C-116.2493335 244.46546631 -115.53382324 244.65358887 -114.79663086 244.84741211 C-113.90729858 244.92294312 -113.90729858 244.92294312 -113 245 C-112.34 244.34 -111.68 243.68 -111 243 C-111.556875 242.401875 -112.11375 241.80375 -112.6875 241.1875 C-121.33793649 229.26392538 -122.33754779 217.23326519 -122 203 C-123.45792969 203.23783203 -123.45792969 203.23783203 -124.9453125 203.48046875 C-140.96498029 205.7431564 -155.82733909 203.22221817 -171 198 Z M-94.375 203.0625 C-98.26546927 207.70113644 -97.49380186 213.21961353 -97 219 C-95.70157488 224.29897821 -93.08936333 227.25012774 -88.6875 230.375 C-81.44834832 234.70672003 -74.35548123 235.9726577 -66 235 C-61.19265178 233.51462452 -56.8152105 231.31757435 -53 228 C-54.29128936 217.66968511 -61.38246696 209.96891067 -68.89453125 203.32421875 C-77.10827586 197.0387573 -86.31215922 196.06055933 -94.375 203.0625 Z M65 214 C64.66895116 215.88929786 64.34341743 217.77977864 64.05004883 219.67529297 C61.91179928 233.38600824 57.33050232 245.85887673 45.6875 254.5 C44.73423828 255.13421875 44.73423828 255.13421875 43.76171875 255.78125 C41.95424108 257.03165584 40.5064366 258.4054948 39 260 C47.13676357 267.51085868 55.85898607 270.39763292 66.83203125 270.27734375 C74.70696376 269.58792302 81.84066141 266.02380224 87 260 C92.34357411 251.41444037 93.62738994 242.097773 91.3515625 232.171875 C88.79223195 225.2157458 84.46526104 217.31008188 77.5625 213.9375 C70.99053512 212.1453319 70.99053512 212.1453319 65 214 Z M-54 270 C-60.03809544 277.83320489 -60.76030593 285.36945819 -60 295 C-57.90856201 302.08765096 -53.2444373 308.91273195 -47 313 C-46.34 313 -45.68 313 -45 313 C-44.90203125 311.741875 -44.8040625 310.48375 -44.703125 309.1875 C-43.97904502 300.63446255 -43.10733544 292.22571846 -41.0625 283.875 C-40.90491211 283.20726562 -40.74732422 282.53953125 -40.58496094 281.8515625 C-39.62347191 278.18287492 -39.27871873 277.18581249 -36 275 C-29.13676732 274.34635879 -29.13676732 274.34635879 -25.5 276.4375 C-22.03315165 282.3600326 -24.21141807 290.99276003 -25 297.5625 C-25.69986506 303.42150547 -26.10820927 309.09583149 -26 315 C-25.01 315.495 -25.01 315.495 -24 316 C-16.09184152 312.98362114 -10.20607711 308.3575693 -6 301 C-2.98532635 293.49884232 -2.49457089 284.77173677 -5.5625 277.1875 C-9.22639025 270.21842204 -13.92862203 264.53659248 -21.41796875 261.69140625 C-34.11947608 258.29024619 -44.90118922 260.24607485 -54 270 Z " fill="#177CDF" transform="translate(299,49)"/>
<path d="M0 0 C0.64984863 0.2254248 1.29969727 0.45084961 1.96923828 0.68310547 C14.60138825 5.21811812 26.31658063 12.59691871 35.27734375 22.66015625 C39.49491022 26.96461582 44.28500736 28.01098518 50 29.4375 C64.6208685 33.50637874 76.28739252 38.90479939 87 50 C87.87398438 50.89525391 87.87398438 50.89525391 88.765625 51.80859375 C93.33770465 56.80786266 96.41277455 62.57179206 99.24609375 68.69140625 C102.15176325 75.19399321 102.15176325 75.19399321 108 79 C104.64535041 80.90439069 101.42143835 81.67238811 97.65234375 82.4375 C96.40646484 82.69273437 95.16058594 82.94796875 93.87695312 83.2109375 C92.56380856 83.47399069 91.25065749 83.73701136 89.9375 84 C88.02807617 84.39058594 88.02807617 84.39058594 86.08007812 84.7890625 C78.73555153 86.28286452 71.38080873 87.6972226 64 89 C64.16048828 87.80503906 64.16048828 87.80503906 64.32421875 86.5859375 C65.28479976 78.40216358 65.28479976 78.40216358 62 71 C61.67 70.01 61.34 69.02 61 68 C59.20608645 66.87044956 59.20608645 66.87044956 57 66 C56.25105469 65.64679688 55.50210937 65.29359375 54.73046875 64.9296875 C47.79968701 62.05516973 41.85280416 61.66852427 34.3828125 61.95703125 C31 62 31 62 28.70678711 61.37426758 C25.07590168 60.87222488 22.74816624 61.8193095 19.30859375 63.0546875 C18.68146988 63.27569122 18.05434601 63.49669495 17.40821838 63.72439575 C15.41369307 64.42984309 13.42565449 65.15181573 11.4375 65.875 C9.44462257 66.58737842 7.4505608 67.29633362 5.45606995 68.00418091 C3.64763685 68.64798792 1.84216676 69.3001 0.03686523 69.95263672 C-2.30782769 70.76128152 -4.58335973 71.46049517 -7 72 C-6.63651724 62.18596552 -1.11228229 53.62845357 6 47 C8.91077282 44.84440305 11.90400488 42.87823704 15 41 C13.49729621 36.67849891 10.27245041 34.81650719 6.5625 32.5 C5.62132324 31.90626587 5.62132324 31.90626587 4.66113281 31.30053711 C-10.18197564 22.19603522 -26.37622624 19.93902129 -43.25 23.8984375 C-55.40021515 27.4675632 -66.94819883 32.94819883 -76 42 C-76.45546419 49.89471267 -74.14678136 58.21744037 -69.0859375 64.30078125 C-63.55334399 69.64765166 -57.74930228 72.89090508 -49.94140625 73.0390625 C-43.1788454 72.03216209 -38.63377098 66.61781996 -34 62 C-33.44699219 61.44957031 -32.89398438 60.89914063 -32.32421875 60.33203125 C-31.88722656 59.89246094 -31.45023437 59.45289063 -31 59 C-28.1486843 56.1486843 -27.34366902 56.02253567 -23.1875 55.75 C-19.33675371 55.80580792 -17.06813195 56.54549444 -14 59 C-10.4838568 62.91921328 -10.36218131 66.0061549 -10.5390625 71.12890625 C-11.88435095 79.50845721 -18.52975781 84.92799823 -24.91796875 89.91796875 C-36.14585929 97.50284284 -47.37383415 100.61316445 -60.8046875 98.57421875 C-74.85036607 95.25618164 -85.71886647 86.57422458 -93.75 74.8125 C-99.8824311 64.61075268 -102.69265911 53.74655549 -104 42 C-110.93315193 44.31105064 -115.65948082 52.77448697 -119 59 C-120.14077657 62.42232972 -120.09815117 65.08673217 -120.0625 68.6875 C-120.05347656 69.86699219 -120.04445312 71.04648438 -120.03515625 72.26171875 C-120.02355469 73.16535156 -120.01195312 74.06898437 -120 75 C-119.49210938 74.69964844 -118.98421875 74.39929688 -118.4609375 74.08984375 C-115.097073 72.23152909 -112.77230283 71 -108.875 71 C-104.08978206 72.66442363 -100.81755661 74.77366509 -98 79 C-97.82055664 81.18554687 -97.82055664 81.18554687 -97.91015625 83.71875 C-97.94302734 85.11009155 -97.94302734 85.11009155 -97.9765625 86.52954102 C-98.00492188 87.50979248 -98.03328125 88.49004395 -98.0625 89.5 C-98.18315468 96.66445189 -98.14050798 103.05869799 -95.65625 109.87890625 C-94.85082825 112.48214441 -94.57238096 114.29465505 -95 117 C-96.9140625 118.66796875 -96.9140625 118.66796875 -99.625 120.1875 C-104.25874235 122.93077089 -108.69296106 125.79857322 -113.0625 128.9375 C-113.65208496 129.359104 -114.24166992 129.78070801 -114.84912109 130.21508789 C-119.41115155 133.50750262 -123.79608093 136.98810754 -128.109375 140.6015625 C-130 142 -130 142 -132 142 C-132.33 142.99 -132.66 143.98 -133 145 C-134.03898438 145.17015625 -135.07796875 145.3403125 -136.1484375 145.515625 C-149.44529917 147.7815367 -160.89272247 150.45818541 -169.4140625 161.8984375 C-175.5897047 172.07269695 -173.94595681 186.67017505 -171.3125 197.8125 C-167.08494769 214.42317864 -161.12701104 223.02834017 -146.52734375 231.9296875 C-135.92715887 238.21903618 -124.88628062 241.10541353 -113 244 C-113 241.45021009 -113.82310793 240.59735943 -115.25 238.5 C-122.60727947 227.00425084 -124.1096696 215.37210975 -122 202 C-119.45817579 192.4378994 -114.50948895 184.55789886 -106.1328125 179.1484375 C-100.49914634 176.12374651 -94.54533036 173.20780724 -88 174 C-83.97170598 176.01414701 -81.40210637 178.22232844 -79 182 C-78.09502924 186.18812049 -78.08692009 190.25802484 -80.1015625 194.1015625 C-83.50654467 198.38055079 -86.962543 200.09907283 -92 202 C-94.73458633 204.27882194 -95.90002525 205.93469526 -96.23828125 209.5390625 C-96.39708017 216.14175449 -96.35851105 221.73804408 -92 227 C-84.42490005 233.42486786 -75.57294015 234.34218494 -66 235 C-69.3827542 238.43169097 -72.85647153 241.7140777 -76.4375 244.9375 C-81.24020815 249.30290573 -85.90357496 253.79309189 -90.5 258.375 C-91.0870874 258.95757568 -91.6741748 259.54015137 -92.27905273 260.14038086 C-94.77622722 262.64621481 -96.97860558 264.96934159 -99.01171875 267.8828125 C-101 270 -101 270 -103.92578125 270.59375 C-112.89486755 270.34547079 -121.29539599 269.18499715 -130 267 C-130.64195312 266.83902832 -131.28390625 266.67805664 -131.9453125 266.51220703 C-156.90615624 260.04202816 -179.00686529 244.77739508 -193 223 C-197.0010396 223.56739889 -200.49798893 224.4490525 -204.25 225.9375 C-220.8721203 232.04041466 -240.8220739 232.43531382 -257.32421875 225.62890625 C-274.10107633 217.34967594 -286.60448413 202.85926664 -292.75 185.25 C-297.55058586 170.62495937 -295.73591559 154.70181457 -289.375 140.9375 C-282.8019303 128.6549756 -273.64099775 120.34507658 -262 113 C-259.7902832 112.36767578 -259.7902832 112.36767578 -258 112 C-258.04640625 110.98421875 -258.0928125 109.9684375 -258.140625 108.921875 C-258.65641249 92.71903338 -253.69498365 80.02136957 -243.37109375 67.4921875 C-232.67651005 56.25142243 -221.06417695 51.10866528 -206 49 C-204.77410156 49.08765625 -203.54820312 49.1753125 -202.28515625 49.265625 C-198.84221403 49.35851476 -198.84221403 49.35851476 -196.8125 46.65625 C-196.214375 45.6146875 -195.61625 44.573125 -195 43.5 C-184.0596172 25.70364398 -169.20840661 16.39604131 -149.37890625 10.54296875 C-131.33464268 6.42449151 -114.3926039 9.88627611 -97.27734375 15.9140625 C-96.19582031 16.27242187 -95.11429688 16.63078125 -94 17 C-93.17242187 17.30679688 -92.34484375 17.61359375 -91.4921875 17.9296875 C-87.59201856 18.03972361 -85.17933064 15.73835881 -82.1875 13.5 C-58.40106838 -3.20964614 -27.87932107 -9.71859788 0 0 Z M-163 45 C-168.63266687 49.95814844 -173.87450424 54.81958718 -175.875 62.25 C-176.26050549 73.81516474 -168.08869116 83.06160243 -160.91796875 91.4296875 C-154.18171582 98.48148792 -145.98844624 104.21539106 -137 108 C-136.01 107.67 -135.02 107.34 -134 107 C-134.54269531 106.03320312 -135.08539063 105.06640625 -135.64453125 104.0703125 C-144.64492838 87.79206223 -148.28490073 73.05351276 -144.05859375 54.55078125 C-142.06143242 47.85181576 -138.86729132 41.80093698 -135 36 C-144.47958018 33.31908361 -155.53187828 39.37723506 -163 45 Z M-226.8125 86.9375 C-231.83283225 93.96596515 -232.40972486 99.60822789 -232 108 C-228.27034861 110.03435531 -226.33094958 111 -222 111 C-220.24061298 108.86685585 -220.24061298 108.86685585 -218.75 106.0625 C-212.97326478 96.50819694 -206.40939502 89.99656117 -197 84 C-197.4979837 80.26512223 -197.87491756 78.18762365 -200 75 C-210.71129245 73.68841317 -219.87093247 79.18780968 -226.8125 86.9375 Z M-192.484375 111.34765625 C-199.6343169 118.88618195 -202.32760488 125.97454237 -202.21875 136.1796875 C-201.73201352 142.45511142 -199.39721236 147.46094208 -195 152 C-194.34 152 -193.68 152 -193 152 C-191.89665062 150.54477163 -190.8676691 149.03286578 -189.875 147.5 C-182.38677878 136.62753155 -173.62875063 130.81437532 -162 125 C-163.42529707 121.55988508 -165.05291172 119.96220591 -168.0625 117.8125 C-172.52296204 114.49777861 -176.27164477 110.78366449 -180.0546875 106.72265625 C-184.97140727 102.36869356 -188.75460291 107.8959812 -192.484375 111.34765625 Z M-259.98828125 143.8515625 C-266.66020758 150.79493765 -269.17622528 158.45386782 -269.5 168 C-269.11243604 178.75783611 -265.93244703 186.06767621 -258.41015625 193.7734375 C-249.50061314 202.00429581 -240.0769031 205.37572361 -227.8894043 204.99365234 C-216.2822478 204.33054219 -207.70348258 201.37952366 -198 195 C-197.91870302 189.33243889 -198.32304236 185.13883701 -202.125 180.75 C-203.39083747 179.47385021 -204.68254385 178.22278864 -206 177 C-206.57363281 176.43152344 -207.14726562 175.86304688 -207.73828125 175.27734375 C-211.85251197 171.42793708 -215.7141508 169.85004722 -221 168 C-223.66377818 165.87769075 -224.34391823 164.28711115 -225 161 C-225.10750253 159.61827635 -225.17624119 158.23312122 -225.2109375 156.84765625 C-225.23929688 156.07099609 -225.26765625 155.29433594 -225.296875 154.49414062 C-225.34882549 152.87718161 -225.39313653 151.25995852 -225.4296875 149.64257812 C-225.66989569 143.60234305 -226.88577956 140.17462674 -231.1875 135.75 C-242.25152712 128.86571646 -251.83257947 136.25666536 -259.98828125 143.8515625 Z " fill="#08BDEE" transform="translate(299,49)"/>
<path d="M0 0 C0.48863737 2.08862682 0.88949295 4.19798749 1.25 6.3125 C2.51621969 12.69581371 4.59564662 17.87607674 7.6953125 23.57421875 C9 26 9 26 10 29 C11.83598569 30.1500885 11.83598569 30.1500885 14 31 C14.60457031 31.28101563 15.20914063 31.56203125 15.83203125 31.8515625 C24.75160082 35.3349447 34.71894691 34.76781964 44 33 C41.31363282 21.71254491 35.6930823 14.4554097 27.85546875 6.06640625 C26 4 26 4 25 2 C32.86807774 3.8634921 39.50383273 9.25055313 45 15 C48.58513106 13.37815499 51.58992323 11.20743761 54.75 8.875 C55.73484375 8.15054688 56.7196875 7.42609375 57.734375 6.6796875 C58.48203125 6.12539062 59.2296875 5.57109375 60 5 C62.79329599 8.35195519 64.3765745 11.86499817 66.0625 15.875 C66.56910156 17.06867188 67.07570313 18.26234375 67.59765625 19.4921875 C68.85359242 22.63377715 69.97040848 25.77821602 71 29 C71.58378418 29.03963867 72.16756836 29.07927734 72.76904297 29.12011719 C88.90694693 30.27350736 100.61439199 31.41690734 112 44 C119 53.49194991 119 53.49194991 119 57 C125.56037083 51.05167543 127.70303149 42.445638 129 34 C132.04080421 33.49420286 135.08246646 32.99519241 138.125 32.5 C138.9809375 32.35691406 139.836875 32.21382812 140.71875 32.06640625 C145.19671505 31.34304266 149.44563435 30.82081184 154 31 C155.50017364 46.72404228 150.14321669 60.72519873 140.5390625 73.01953125 C138.30748048 75.63906522 136.02186205 77.9786313 133.5 80.3125 C129.4264888 84.16515819 128.62929847 87.54607996 128 93 C126.44910603 105.04460512 120.66585201 116.84858311 111.08203125 124.5390625 C95.95623918 135.28416069 80.49889149 138.70575194 62.34765625 136.5703125 C49.01464495 134.14067489 38.08040566 127.94229534 28 119 C28.33 119.99 28.66 120.98 29 122 C30.0967195 139.36772197 27.05374985 152.49575174 16.109375 166.40234375 C9.75780753 173.49331124 1.64004523 177.33422358 -7 181 C-7.66 181 -8.32 181 -9 181 C-4.6899805 186.05312631 0.79251015 189.62759727 7 192 C10.08718488 191.72380164 11.62982292 191.25383571 14.1875 189.5 C19.69962865 186.56019805 25.7202043 186.33861457 31.6875 188.0625 C37.38003516 190.27906236 41.39929378 193.70565442 44.875 198.6875 C47.23251864 205.62908266 48.04835403 212.49586964 44.93359375 219.29296875 C41.68484846 225.2331432 37.3699445 228.75069977 31 231 C25.28997266 231.80092282 19.32517833 232.12134926 14.0625 229.4375 C9.14577144 225.52418543 4.68469555 221.23337353 3 215 C3 213.68 3 212.36 3 211 C1.741875 210.649375 0.48375 210.29875 -0.8125 209.9375 C-10.36662035 206.76788661 -20.01271007 200.40562145 -25.625 192 C-26.74860249 190.33239087 -27.87353338 188.66567576 -29 187 C-29.44085938 186.27941406 -29.88171875 185.55882812 -30.3359375 184.81640625 C-32.61527213 182.32840014 -34.77807001 181.84959048 -38 180.9375 C-44.48164241 179.08673691 -44.48164241 179.08673691 -47 176 C-39.5315876 165.72431201 -31.45134731 156.39415048 -22.5 147.375 C-21.97108154 146.84132813 -21.44216309 146.30765625 -20.8972168 145.7578125 C-17.12271664 142 -17.12271664 142 -16 142 C-16 146.95 -16 151.9 -16 157 C-7.04355221 153.1758987 -1.49114674 149.80788002 3 141 C3.95892566 138.41142471 3.99567468 136.9653974 3.6484375 134.1875 C3.30637503 130.20002896 3.53301473 127.75314181 5 124 C9.54888817 119.41328616 15.57891864 116.49782431 21.22607422 113.48486328 C24.02646192 111.98583512 26.78163824 110.42310441 29.53515625 108.83984375 C32.94663078 106.89895435 36.35937293 104.96231616 39.8046875 103.08203125 C40.49546387 102.70280518 41.18624023 102.3235791 41.89794922 101.93286133 C44.24466219 100.89142227 46.47343602 100.41760249 49 100 C49.20882812 100.59425781 49.41765625 101.18851562 49.6328125 101.80078125 C51.52144952 104.8387888 53.66817521 105.66249408 56.875 107.1875 C57.92429687 107.69667969 58.97359375 108.20585937 60.0546875 108.73046875 C67.80576392 112.07144996 76.44095962 112.29377578 84.375 109.3125 C91.85204631 105.873538 95.88596374 101.63338119 99 94 C101.63075486 86.10773542 100.83459428 76.81203018 97.33203125 69.32421875 C94.38089095 64.17486838 91.43256006 59.32204351 86.125 56.4375 C82.05745404 55.86804357 78.09876194 55.83604952 74 56 C73.94392578 54.53240234 73.94392578 54.53240234 73.88671875 53.03515625 C73.4211687 43.75154047 72.81873047 34.68072423 67 27 C62.75983331 24.43955673 58.82842855 24.24946706 54 25 C50.13122542 26.7394711 50.13122542 26.7394711 48 30 C47.28340891 35.42361096 47.60719336 40.69299383 48.5234375 46.07421875 C48.98459195 48.90540465 49.10119599 51.51149651 49.0625 54.375 C49.05347656 55.24898438 49.04445313 56.12296875 49.03515625 57.0234375 C49.02355469 57.67570312 49.01195312 58.32796875 49 59 C32.10766169 61.50256864 13.53373309 61.93067393 -1 52 C-11.3481011 44.20099125 -19.93625655 32.80534689 -23 20 C-20.70851765 11.6479851 -14.12274129 5.47924968 -7 1 C-2.5 -1.25 -2.5 -1.25 0 0 Z " fill="#2542D1" transform="translate(290,207)"/>
<path d="M0 0 C0 0.66 0 1.32 0 2 C1.52029885 3.49825323 1.52029885 3.49825323 3.5 5.0625 C12.87860701 13.12249794 19.00478106 22.31557455 25 33 C25.67869141 34.09054688 25.67869141 34.09054688 26.37109375 35.203125 C27 37 27 37 26.35546875 38.96484375 C25.97003906 39.61582031 25.58460938 40.26679687 25.1875 40.9375 C23.42577563 43.96189371 22.56034009 46.53553169 22 50 C22.87398437 49.63648438 23.74796875 49.27296875 24.6484375 48.8984375 C31.90220226 45.91717816 39.21170006 43.12295967 46.625 40.5625 C47.38216309 40.29163574 48.13932617 40.02077148 48.91943359 39.74169922 C52.97653963 38.36996343 55.77523878 37.58896315 60 39 C58.14540425 41.06066194 56.45185223 42.33821884 54.0625 43.8125 C48.77513419 47.58918986 46.97055742 51.19363312 45.76953125 57.44140625 C45.43579913 59.47941463 45.11714841 61.51994165 44.8125 63.5625 C44.48587608 65.60550058 44.15905986 67.64847042 43.83203125 69.69140625 C43.69514893 70.59060791 43.5582666 71.48980957 43.41723633 72.41625977 C43.00656503 74.959346 42.52120642 77.47747456 42 80 C54.44569274 84.3974781 65.33339328 85.57933258 78 81 C82.69660767 78.47468834 85.68492307 75.6275459 88.328125 71.03125 C92.72825381 65.07294183 99.48477929 64.50675066 106.375 63.1875 C107.73708511 62.90760916 109.09874019 62.62561752 110.45996094 62.34155273 C113.11668203 61.79093975 115.77618991 61.25830673 118.43847656 60.73535156 C121.39406509 60.12510803 124.27476368 59.42789168 127.1796875 58.6171875 C136.16712507 56.19962849 136.16712507 56.19962849 140.9609375 58.29296875 C143.71811294 60.31840115 145.80208132 62.38343015 148 65 C148.60457031 65.71285156 149.20914062 66.42570312 149.83203125 67.16015625 C155.68522384 75.00713707 157.18374678 83.43495932 157 93 C153.56336386 93.67117267 150.12555959 94.33616071 146.6875 95 C145.71103516 95.19078125 144.73457031 95.3815625 143.72851562 95.578125 C142.79072266 95.75859375 141.85292969 95.9390625 140.88671875 96.125 C140.02264404 96.29257813 139.15856934 96.46015625 138.26831055 96.6328125 C136 97 136 97 133 97 C132.76216797 95.78763672 132.76216797 95.78763672 132.51953125 94.55078125 C130.91201623 87.18818485 129.49336295 82.94876943 123 78.6875 C120.36291116 77.78100071 118.78220364 77.5637373 116 78 C114.32478802 79.97785064 113.07287098 81.74380196 111.75 83.9375 C105.89897446 92.9609612 99.86782216 99.50983745 90 104 C89.05241821 104.43421265 89.05241821 104.43421265 88.08569336 104.87719727 C68.20811504 113.59796597 48.17342197 110.72447399 28 104 C29.85054064 100.14308372 31.99343074 96.45576705 34.125 92.75 C34.49753906 92.1003125 34.87007812 91.450625 35.25390625 90.78125 C36.16829121 89.18693776 37.08401256 87.5933921 38 86 C13.12861002 89.76538972 -13.22084545 106.87557455 -34.47167969 119.51269531 C-36.86887043 120.92286198 -39.29230298 122.27240124 -41.7265625 123.6171875 C-48.81829462 127.46005921 -48.81829462 127.46005921 -53.0234375 134.00390625 C-53.31142818 137.10720163 -53.31142818 137.10720163 -53.10546875 140.1484375 C-52.95081507 144.32981487 -54.32659781 147.21665591 -56 151 C-54.99066406 150.96003906 -53.98132813 150.92007813 -52.94140625 150.87890625 C-48.90634468 151.00287742 -45.7799408 151.74179029 -41.9375 152.9375 C-37.62483098 154.26704106 -33.46953473 155.35372024 -29 156 C-29.16113281 156.61875 -29.32226562 157.2375 -29.48828125 157.875 C-30.2058074 162.25683906 -30.1906479 166.56657897 -30.1875 171 C-30.1884668 172.39545044 -30.1884668 172.39545044 -30.18945312 173.8190918 C-30.13432928 181.04845881 -29.47355088 187.90853638 -28 195 C-28.87398437 193.88818359 -28.87398437 193.88818359 -29.765625 192.75390625 C-37.00507629 183.83115597 -43.86521303 178.78369674 -55 176 C-54.34 175.21625 -53.68 174.4325 -53 173.625 C-50.16709518 169.36552525 -50.17510114 164.94114417 -51 160 C-53.13023311 156.3481718 -55.14453981 154.59930201 -59 153 C-67.70051949 153 -75.35964145 156.21896711 -82.109375 161.71875 C-86.70712084 166.51993593 -88.95549473 172.06136393 -91.25 178.2421875 C-93 181 -93 181 -96.1328125 182.359375 C-100.43465373 183.07200324 -104.52076487 183.38308669 -108.875 183.375 C-109.69709961 183.37483887 -110.51919922 183.37467773 -111.36621094 183.37451172 C-119.92622725 183.21866627 -127.8081439 181.34787508 -136 179 C-136.67224609 178.80889648 -137.34449219 178.61779297 -138.03710938 178.42089844 C-139.69225829 177.95025178 -141.3462557 177.47555859 -143 177 C-144.7271426 170.72368717 -145.19306208 164.66106933 -145.1875 158.1875 C-145.18814453 157.45861572 -145.18878906 156.72973145 -145.18945312 155.97875977 C-145.15124339 152.20250921 -144.90159621 148.67129978 -144 145 C-142.9275 145.721875 -141.855 146.44375 -140.75 147.1875 C-128.24902724 154.97571666 -113.74521398 159.44821083 -99.0390625 156.3828125 C-90.84016427 153.78764303 -84.73472105 149.06064641 -79.9375 141.9375 C-77.91165242 136.18409287 -78.84231118 128.93961213 -79 123 C-86.92 122.67 -94.84 122.34 -103 122 C-103 121.34 -103 120.68 -103 120 C-101.40209961 118.5546875 -101.40209961 118.5546875 -99.15234375 116.875 C-98.32589355 116.2550415 -97.49944336 115.63508301 -96.64794922 114.99633789 C-95.75350098 114.33754639 -94.85905273 113.67875488 -93.9375 113 C-93.03531738 112.33025146 -92.13313477 111.66050293 -91.20361328 110.97045898 C-85.6693664 106.88947774 -80.08350862 102.89626383 -74.375 99.0625 C-73.44482056 98.43504883 -73.44482056 98.43504883 -72.49584961 97.79492188 C-68.25355748 95 -68.25355748 95 -66 95 C-65.505 93.02 -65.505 93.02 -65 91 C-64.38125 92.03125 -63.7625 93.0625 -63.125 94.125 C-57.48560944 101.88505274 -48.94469867 104.9922647 -39.76953125 106.65234375 C-24.8174766 108.03134154 -9.51825822 103.31055099 2.16796875 93.90625 C6.3313778 89.57417405 8.4767817 86.23642084 8.40039062 80.078125 C8.37138672 79.39234375 8.34238281 78.7065625 8.3125 78 C8.29799805 76.97132813 8.29799805 76.97132813 8.28320312 75.921875 C8.19423191 71.86788225 7.76475801 67.97922868 7 64 C7.721875 63.505 8.44375 63.01 9.1875 62.5 C13.48083221 58.6837047 16.5120493 55.00342068 17.453125 49.2109375 C17.62376989 44.68884786 17.48458816 41.83549682 15.1875 37.875 C11.66146716 34.85268614 8.54891187 34.79013919 4.0078125 34.83203125 C1.41180609 35.04920688 -0.68055553 35.84027777 -3 37 C-3.515625 36.154375 -4.03125 35.30875 -4.5625 34.4375 C-11.51384339 24.15530457 -21.99274694 18.21396198 -33 13 C-34.33473782 12.33614973 -35.66842721 11.67017619 -37 11 C-27.84251778 6.10748729 -19.30573603 1.90963868 -9 0 C-8.113125 -0.1959375 -7.22625 -0.391875 -6.3125 -0.59375 C-3.84830201 -1.02664965 -2.35132939 -0.78377646 0 0 Z " fill="#0BABEA" transform="translate(270,71)"/>
<path d="M0 0 C-2.9905357 5.69198628 -5.87088623 11.04506347 -10 16 C-11.40878582 18.29777825 -12.70222966 20.63620403 -14 23 C-13.2059375 22.8040625 -12.411875 22.608125 -11.59375 22.40625 C-6.96833006 21.88337644 -3.03576282 22.58190439 1.5 23.5 C2.37914062 23.67362061 3.25828125 23.84724121 4.1640625 24.02612305 C11.22443746 25.55256891 17.03345564 28.08320431 23.25 31.70703125 C25.7913855 33.1638614 25.7913855 33.1638614 27.96875 32.90625 C30.87529961 31.60948171 33.68286653 30.16903303 36.5 28.6875 C47.38717951 23.0913264 57.80883601 19.80728016 70.0625 19.875 C70.90143799 19.87693359 71.74037598 19.87886719 72.60473633 19.88085938 C79.11315575 19.9258355 85.5236821 20.3271358 92 21 C92.33 16.71 92.66 12.42 93 8 C93.33 8.99 93.66 9.98 94 11 C102.25 9.35 110.5 7.7 119 6 C118.814375 9.8053125 118.814375 9.8053125 118.625 13.6875 C118.58592529 14.52772705 118.54685059 15.3679541 118.5065918 16.23364258 C118.24512027 20.94705299 117.53191612 25.26956363 116.4375 29.875 C115.82010171 33.57481644 115.6527081 35.32025773 117.37109375 38.68359375 C118.74500571 40.48601627 120.16758527 42.25206382 121.62890625 43.984375 C129.86523258 54.45957093 135.22334174 67.71116656 135 81 C131.95919579 81.50579714 128.91753354 82.00480759 125.875 82.5 C125.0190625 82.64308594 124.163125 82.78617187 123.28125 82.93359375 C118.80328495 83.65695734 114.55436565 84.17918816 110 84 C109.81566406 83.00742188 109.63132812 82.01484375 109.44140625 80.9921875 C107.0120144 69.20146119 102.36915736 58.06482369 93 50 C81.37062062 44.35953322 66.95826347 45.06518019 55 49 C44.72232426 53.05320333 36.1530705 58.53786767 28 66 C25.17385775 64.70647285 23.07640869 63.30607134 20.8125 61.1875 C16.8780684 57.7406689 12.68487548 55.29746948 8 53 C7.37480469 52.68933594 6.74960937 52.37867188 6.10546875 52.05859375 C-3.0837156 48.05404394 -13.51625798 48.24665554 -23 51 C-23.77859375 51.21140625 -24.5571875 51.4228125 -25.359375 51.640625 C-39.36645039 56.07764888 -52.41484942 64.80814468 -64.76171875 72.63671875 C-67 74 -67 74 -68 74 C-69.14846093 63.89354385 -62.99511052 54.41729262 -58 46 C-58.99515625 46.16113281 -59.9903125 46.32226562 -61.015625 46.48828125 C-71.34764628 47.95501291 -81.86917576 47.4039244 -92 45 C-87.68477378 41.32470713 -83.04065284 38.45521192 -78.1875 35.5625 C-76.87894043 34.78241577 -76.87894043 34.78241577 -75.54394531 33.98657227 C-57.2296134 23.16314473 -38.50610977 13.49165263 -19 5 C-17.7927124 4.47092041 -17.7927124 4.47092041 -16.56103516 3.93115234 C-3.92020236 -1.5604689 -3.92020236 -1.5604689 0 0 Z " fill="#128FE3" transform="translate(309,157)"/>
<path d="M0 0 C4.98970273 2.25948803 6.9864685 5.12317998 9.23828125 9.90234375 C13.63713014 22.01609685 12.53662237 40.1576481 8 52 C7.73316406 52.70511719 7.46632813 53.41023438 7.19140625 54.13671875 C3.08366224 63.42934853 -4.65186463 73.14996436 -14.31640625 76.8984375 C-15.16074219 77.17945313 -16.00507813 77.46046875 -16.875 77.75 C-29.26947129 81.90437958 -40.69441256 89.45487829 -51.31738281 96.95166016 C-55.69530463 100 -55.69530463 100 -59 100 C-59.21914063 99.43152344 -59.43828125 98.86304688 -59.6640625 98.27734375 C-62.62732428 91.06192179 -65.92325633 85.22976814 -73.125 81.6875 C-78.55155184 79.52615542 -84.23389664 78.74149553 -90 78 C-85.46287314 72.92112665 -79.99757854 69.50105604 -74.3125 65.8125 C-72.41144577 64.57102118 -70.51164313 63.32762308 -68.61328125 62.08203125 C-67.77579346 61.53780518 -66.93830566 60.9935791 -66.07543945 60.43286133 C-63.9092888 59.02939701 -63.9092888 59.02939701 -62 57 C-61.32195312 57.2165625 -60.64390625 57.433125 -59.9453125 57.65625 C-48.49119841 61.08296557 -39.09817777 60.92481638 -28 56 C-21.56646745 51.85747831 -16.67053881 46.5964366 -15 39 C-14.47796959 32.17522005 -14.8444723 25.73028732 -16 19 C-17.17014673 8.04317156 -17.17014673 8.04317156 -14.75390625 3.82421875 C-10.43481835 -0.35522197 -5.79822157 -1.20619938 0 0 Z " fill="#1D62D9" transform="translate(353,231)"/>
<path d="M0 0 C3.89973629 2.14103169 6.63370605 4.23976853 9 8 C9.90497076 12.18812049 9.91307991 16.25802484 7.8984375 20.1015625 C4.49345533 24.38055079 1.037457 26.09907283 -4 28 C-6.73458633 30.27882194 -7.90002525 31.93469526 -8.23828125 35.5390625 C-8.39708017 42.14175449 -8.35851105 47.73804408 -4 53 C3.57509995 59.42486786 12.42705985 60.34218494 22 61 C18.6172458 64.43169097 15.14352847 67.7140777 11.5625 70.9375 C6.75979185 75.30290573 2.09642504 79.79309189 -2.5 84.375 C-3.0870874 84.95757568 -3.6741748 85.54015137 -4.27905273 86.14038086 C-6.77622722 88.64621481 -8.97860558 90.96934159 -11.01171875 93.8828125 C-13 96 -13 96 -15.92578125 96.59375 C-29.8292398 96.20887918 -42.76878037 93.01625619 -56 89 C-52.05144343 83.64551799 -47.95813752 78.43742318 -43.734375 73.296875 C-41.7653704 70.8342229 -41.7653704 70.8342229 -40 67 C-34.72 67.99 -29.44 68.98 -24 70 C-24.9075 68.55625 -25.815 67.1125 -26.75 65.625 C-34.06883154 53.40964523 -36.22725544 42.11742587 -34 28 C-31.45870177 18.43987808 -26.50299499 10.31017719 -17.921875 5.1484375 C-6.5585837 -0.6429984 -6.5585837 -0.6429984 0 0 Z " fill="#128FE3" transform="translate(211,223)"/>
<path d="M0 0 C2.07421875 1.76171875 2.07421875 1.76171875 4 3.75 C4.64582031 4.39582031 5.29164063 5.04164063 5.95703125 5.70703125 C13.01499604 13.71596392 15.28328943 23.31361742 15 33.75 C11.56336386 34.42117267 8.12555959 35.08616071 4.6875 35.75 C3.71103516 35.94078125 2.73457031 36.1315625 1.72851562 36.328125 C0.79072266 36.50859375 -0.14707031 36.6890625 -1.11328125 36.875 C-2.40939331 37.12636719 -2.40939331 37.12636719 -3.73168945 37.3828125 C-6 37.75 -6 37.75 -9 37.75 C-9.15855469 36.94175781 -9.31710937 36.13351563 -9.48046875 35.30078125 C-11.08798377 27.93818485 -12.50663705 23.69876943 -19 19.4375 C-21.63708884 18.53100071 -23.21779636 18.3137373 -26 18.75 C-27.67521198 20.72785064 -28.92712902 22.49380196 -30.25 24.6875 C-36.10102554 33.7109612 -42.13217784 40.25983745 -52 44.75 C-52.63172119 45.0394751 -53.26344238 45.3289502 -53.91430664 45.62719727 C-73.79188496 54.34796597 -93.82657803 51.47447399 -114 44.75 C-111.90893711 40.37183707 -109.39630536 36.22747099 -106.921875 32.05859375 C-104.78374874 28.38069746 -103.19815241 24.83120666 -102 20.75 C-100.31583984 21.183125 -100.31583984 21.183125 -98.59765625 21.625 C-85.8398837 24.82834282 -73.95017279 27.10009291 -61.66796875 20.49609375 C-58.08116984 17.9791622 -55.8485766 15.56509139 -53.67578125 11.78125 C-49.26306534 5.80403821 -42.46854342 5.26587834 -35.5625 3.9375 C-34.28439453 3.66486328 -33.00628906 3.39222656 -31.68945312 3.11132812 C-28.45904181 2.42875508 -25.22382518 1.78511929 -21.98321533 1.15338135 C-19.93341526 0.73645682 -17.89707229 0.27640145 -15.85888672 -0.19384766 C-15.1849437 -0.34391769 -14.51100067 -0.49398773 -13.81663513 -0.64860535 C-11.94987054 -1.06528474 -10.08603102 -1.49500681 -8.22241211 -1.92553711 C-4.63172011 -2.2870819 -3.0664018 -1.82080356 0 0 Z " fill="#0E9FE7" transform="translate(412,130.25)"/>
<path d="M0 0 C0.48863737 2.08862682 0.88949295 4.19798749 1.25 6.3125 C2.51621969 12.69581371 4.59564662 17.87607674 7.6953125 23.57421875 C9 26 9 26 10 29 C11.83598569 30.1500885 11.83598569 30.1500885 14 31 C14.60457031 31.28101563 15.20914063 31.56203125 15.83203125 31.8515625 C24.75160082 35.3349447 34.71894691 34.76781964 44 33 C41.31363282 21.71254491 35.6930823 14.4554097 27.85546875 6.06640625 C26 4 26 4 25 2 C32.86807774 3.8634921 39.50383273 9.25055313 45 15 C48.58513106 13.37815499 51.58992323 11.20743761 54.75 8.875 C55.73484375 8.15054688 56.7196875 7.42609375 57.734375 6.6796875 C58.48203125 6.12539062 59.2296875 5.57109375 60 5 C62.79329599 8.35195519 64.3765745 11.86499817 66.0625 15.875 C66.56910156 17.06867188 67.07570313 18.26234375 67.59765625 19.4921875 C68.85359242 22.63377715 69.97040848 25.77821602 71 29 C71.58378418 29.03963867 72.16756836 29.07927734 72.76904297 29.12011719 C98.50294848 30.95934202 98.50294848 30.95934202 109 41 C106.49754235 42.25122882 104.9679505 41.96673788 102.1875 41.8125 C98.53853569 41.77564177 97.23760393 41.86139771 94 43.75 C89.75709862 48.52326405 89.79193873 51.75816198 90 58 C89.030625 57.67 88.06125 57.34 87.0625 57 C82.70233163 55.73126248 78.50445434 55.81614472 74 56 C73.94392578 54.53240234 73.94392578 54.53240234 73.88671875 53.03515625 C73.4211687 43.75154047 72.81873047 34.68072423 67 27 C62.75983331 24.43955673 58.82842855 24.24946706 54 25 C50.13122542 26.7394711 50.13122542 26.7394711 48 30 C47.28340891 35.42361096 47.60719336 40.69299383 48.5234375 46.07421875 C48.98459195 48.90540465 49.10119599 51.51149651 49.0625 54.375 C49.05347656 55.24898438 49.04445313 56.12296875 49.03515625 57.0234375 C49.02355469 57.67570312 49.01195312 58.32796875 49 59 C32.10766169 61.50256864 13.53373309 61.93067393 -1 52 C-11.3481011 44.20099125 -19.93625655 32.80534689 -23 20 C-20.70851765 11.6479851 -14.12274129 5.47924968 -7 1 C-2.5 -1.25 -2.5 -1.25 0 0 Z " fill="#0E39B3" transform="translate(290,207)"/>
<path d="M0 0 C-2.9905357 5.69198628 -5.87088623 11.04506347 -10 16 C-11.40878582 18.29777825 -12.70222966 20.63620403 -14 23 C-13.21367187 22.80019531 -12.42734375 22.60039062 -11.6171875 22.39453125 C-6.85247118 21.87483757 -2.78655533 22.7143224 1.875 23.6875 C2.73480469 23.84927734 3.59460938 24.01105469 4.48046875 24.17773438 C10.22314269 25.34108334 14.86757233 27.1718061 20 30 C18.4837882 33.03242361 16.21873517 33.2652634 13.09375 34.4609375 C11.87429688 34.93273437 10.65484375 35.40453125 9.3984375 35.890625 C8.09910293 36.38579625 6.79962267 36.88058538 5.5 37.375 C-8.78926103 41.94048956 -8.78926103 41.94048956 -21 50 C-22.7862884 50.73401257 -24.60514816 51.39001031 -26.4375 52 C-40.02276259 57.0242703 -52.56380816 64.90259247 -64.76171875 72.63671875 C-67 74 -67 74 -68 74 C-69.14846093 63.89354385 -62.99511052 54.41729262 -58 46 C-58.99515625 46.16113281 -59.9903125 46.32226562 -61.015625 46.48828125 C-71.34764628 47.95501291 -81.86917576 47.4039244 -92 45 C-87.68477378 41.32470713 -83.04065284 38.45521192 -78.1875 35.5625 C-76.87894043 34.78241577 -76.87894043 34.78241577 -75.54394531 33.98657227 C-57.2296134 23.16314473 -38.50610977 13.49165263 -19 5 C-17.7927124 4.47092041 -17.7927124 4.47092041 -16.56103516 3.93115234 C-3.92020236 -1.5604689 -3.92020236 -1.5604689 0 0 Z " fill="#0E9FE8" transform="translate(309,157)"/>
<path d="M0 0 C5.99229262 -0.35597778 9.90361589 0.40612866 15.1875 3.375 C19.06055617 5.45756135 22.87023642 7.46008816 27 9 C26.64999003 16.24158565 25.94397591 22.34405447 23 29 C24.00933594 28.96003906 25.01867187 28.92007813 26.05859375 28.87890625 C30.09365532 29.00287742 33.2200592 29.74179029 37.0625 30.9375 C41.37516902 32.26704106 45.53046527 33.35372024 50 34 C49.75830078 34.928125 49.75830078 34.928125 49.51171875 35.875 C48.7941926 40.25683906 48.8093521 44.56657897 48.8125 49 C48.8115332 50.39545044 48.8115332 50.39545044 48.81054688 51.8190918 C48.86567072 59.04845881 49.52644912 65.90853638 51 73 C50.12601563 71.88818359 50.12601563 71.88818359 49.234375 70.75390625 C41.99492371 61.83115597 35.13478697 56.78369674 24 54 C24.99 52.824375 24.99 52.824375 26 51.625 C28.83290482 47.36552525 28.82489886 42.94114417 28 38 C25.86976689 34.3481718 23.85546019 32.59930201 20 31 C11.29948051 31 3.64035855 34.21896711 -3.109375 39.71875 C-7.70712084 44.51993593 -9.95549473 50.06136393 -12.25 56.2421875 C-14 59 -14 59 -17.1328125 60.359375 C-21.43465373 61.07200324 -25.52076487 61.38308669 -29.875 61.375 C-30.69709961 61.37483887 -31.51919922 61.37467773 -32.36621094 61.37451172 C-40.92622725 61.21866627 -48.8081439 59.34787508 -57 57 C-57.67224609 56.80889648 -58.34449219 56.61779297 -59.03710938 56.42089844 C-60.69225829 55.95025178 -62.3462557 55.47555859 -64 55 C-65.7271426 48.72368717 -66.19306208 42.66106933 -66.1875 36.1875 C-66.18814453 35.45861572 -66.18878906 34.72973145 -66.18945312 33.97875977 C-66.15124339 30.20250921 -65.90159621 26.67129978 -65 23 C-63.39125 24.0828125 -63.39125 24.0828125 -61.75 25.1875 C-49.24902724 32.97571666 -34.74521398 37.44821083 -20.0390625 34.3828125 C-11.99843344 31.83773944 -5.30199764 27.28326752 -1.26171875 19.765625 C0.17816197 15.46827203 0.34721363 12.03857698 0.1875 7.5625 C0.17396484 6.83095703 0.16042969 6.09941406 0.14648438 5.34570312 C0.11153874 3.56347578 0.05774805 1.78163427 0 0 Z " fill="#0E39B2" transform="translate(191,193)"/>
<path d="M0 0 C0.33 0 0.66 0 1 0 C1.10957031 1.08796875 1.21914062 2.1759375 1.33203125 3.296875 C3.58269519 26.8655467 3.58269519 26.8655467 15.73046875 46.28515625 C24.27901265 52.74438306 33.1297515 57.83442055 43 62 C44.33873455 62.65575302 45.67407959 63.3187091 47 64 C46.48324321 68.22524667 43.87986814 70.85225411 41.1875 73.9375 C40.30555874 74.96707901 39.42404347 75.99702309 38.54296875 77.02734375 C37.70378906 78.00832031 36.86460937 78.98929687 36 80 C34.65926033 81.66071451 33.32315305 83.32523985 32 85 C27.26068416 84.4155757 23.51678656 82.33596421 19.4375 80 C18.73222168 79.59773193 18.02694336 79.19546387 17.30029297 78.78100586 C2.95095281 70.43628766 -8.98227508 60.03420765 -18 46 C-21.5609979 46.51659547 -24.28924411 47.12467419 -27.625 48.5625 C-31 50 -31 50 -35 50 C-33.42157501 45.16259164 -30.67398956 41.55621289 -27.625 37.5625 C-27.09551758 36.86310303 -26.56603516 36.16370605 -26.02050781 35.44311523 C-19.89473106 27.43311034 -13.40494896 19.69447613 -6.50390625 12.33984375 C-1.39784731 7.06489827 -1.39784731 7.06489827 0 0 Z " fill="#0BACEA" transform="translate(124,226)"/>
<path d="M0 0 C0.76693776 8.03864397 -0.11231783 14.64202431 -2.625 22.25 C-2.86041504 22.98138184 -3.09583008 23.71276367 -3.33837891 24.46630859 C-4.12354951 26.70326617 -5.02441351 28.83955069 -6 31 C-6.32798584 31.79543213 -6.65597168 32.59086426 -6.99389648 33.41040039 C-9.1399813 37.58530928 -10.91513672 39.56678492 -15.33691406 41.33251953 C-19.4427866 42.47948852 -23.61582172 43.21121503 -27.8125 43.9375 C-29.25132013 44.21332926 -30.68948462 44.4926019 -32.12695312 44.77539062 C-34.8662639 45.30977204 -37.60784326 45.82578183 -40.35400391 46.32373047 C-44.59804364 47.1109268 -48.79562192 48.02541292 -53 49 C-53.29132813 48.154375 -53.58265625 47.30875 -53.8828125 46.4375 C-56.68032802 38.60962559 -56.68032802 38.60962559 -61.25 31.75 C-64.04036523 28.32348933 -65.01747615 25.52547699 -65.23828125 21.109375 C-64.75087187 16.79460341 -62.28795972 14.15094273 -59.1640625 11.359375 C-56.58931016 9.74202154 -55.08127933 9.59709141 -52.0625 9.625 C-51.22847656 9.61726562 -50.39445312 9.60953125 -49.53515625 9.6015625 C-45.09901887 10.29876745 -42.6944325 12.09602888 -39.98046875 15.62890625 C-39.38878906 16.59699219 -38.79710937 17.56507813 -38.1875 18.5625 C-37.58292969 19.53316406 -36.97835938 20.50382812 -36.35546875 21.50390625 C-35 24 -35 24 -35 26 C-28.43962917 20.05167543 -26.29696851 11.445638 -25 3 C-21.95919579 2.49420286 -18.91753354 1.99519241 -15.875 1.5 C-15.0190625 1.35691406 -14.163125 1.21382812 -13.28125 1.06640625 C-8.80328495 0.34304266 -4.55436565 -0.17918816 0 0 Z " fill="#1D62D9" transform="translate(444,238)"/>
<path d="M0 0 C8.17097816 -0.5745219 15.03866386 -0.09440874 22.8125 2.375 C23.86147461 2.70697388 23.86147461 2.70697388 24.93164062 3.0456543 C29.85760688 4.71521375 29.85760688 4.71521375 31 7 C30.154375 7.61875 29.30875 8.2375 28.4375 8.875 C22.9386504 13.44649016 18.05994991 20.11997026 16 27 C15.90426859 30.75433633 16.06602296 34.45937907 16.22265625 38.2109375 C16.01007267 41.82858788 15.20632437 43.67920531 13.67895508 46.86621094 C12.10226045 51.82137491 12.70309714 57.29556547 12.8125 62.4375 C12.82603516 63.64599609 12.83957031 64.85449219 12.85351562 66.09960938 C12.88870054 69.06687082 12.93793304 72.03319937 13 75 C3.41535413 75.25912955 3.41535413 75.25912955 0.296875 72.48486328 C-1.02409304 70.39838172 -2.03268269 68.33444815 -3 66.0625 C-3.36609375 65.28922363 -3.7321875 64.51594727 -4.109375 63.71923828 C-11.38804616 47.9718596 -12.99925622 32.75027546 -8 16 C-6.2276436 11.85977546 -4.18621626 7.93397132 -2 4 C-1.32622707 2.67024353 -0.65659459 1.33832199 0 0 Z " fill="#0E39B3" transform="translate(163,84)"/>
<path d="M0 0 C3 1.9375 3 1.9375 5 5 C5.597659 8.08266223 5.29148965 10.89087108 5 14 C4.94448975 14.9180542 4.88897949 15.8361084 4.83178711 16.78198242 C3.92115708 25.60129186 0.63197951 29.51052636 -5.875 35.25 C-14.37329109 43.19571342 -21.39638456 51.44386987 -28 61 C-39.87954147 55.58326856 -47.37163035 46.73867921 -53 35 C-53.71801758 33.02734375 -53.71801758 33.02734375 -54 31 C-52.2881592 28.59858375 -50.60523856 26.53499411 -48.625 24.375 C-48.08004883 23.76124512 -47.53509766 23.14749023 -46.97363281 22.51513672 C-45.32729175 20.66601344 -43.66485772 18.83244738 -42 17 C-41.06398572 15.95412489 -40.1290026 14.90732551 -39.1953125 13.859375 C-37.14126483 11.56251659 -35.07689057 9.27618815 -33 7 C-32.34 7.33 -31.68 7.66 -31 8 C-31.03480469 8.85722656 -31.06960937 9.71445312 -31.10546875 10.59765625 C-31.35182617 21.00332422 -29.23535106 28.33119472 -22 36 C-20.36550488 37.05176208 -18.7036669 38.06442699 -17 39 C-17.05220703 38.01386719 -17.05220703 38.01386719 -17.10546875 37.0078125 C-17.29269605 30.42811016 -16.74151411 24.16625338 -15.6875 17.6875 C-15.51093872 16.55948975 -15.51093872 16.55948975 -15.33081055 15.40869141 C-14.49260894 10.55538078 -13.25531262 6.39368309 -11 2 C-7.30279853 -0.46480098 -4.28844034 -0.7842673 0 0 Z " fill="#1D61D8" transform="translate(271,323)"/>
<path d="M0 0 C0 0.66 0 1.32 0 2 C1.52029885 3.49825323 1.52029885 3.49825323 3.5 5.0625 C12.87860701 13.12249794 19.00478106 22.31557455 25 33 C25.40299316 33.65943604 25.80598633 34.31887207 26.22119141 34.99829102 C26.47819824 35.65885498 26.73520508 36.31941895 27 37 C26.09490639 38.84861101 25.17382431 40.6908741 24.1796875 42.49316406 C21.7526752 47.65056519 20.77635929 53.34410976 19.5 58.875 C14.30114809 81.260924 14.30114809 81.260924 9 86 C8.93941406 84.91460937 8.87882812 83.82921875 8.81640625 82.7109375 C8.73193936 81.26561514 8.64729449 79.82030318 8.5625 78.375 C8.52318359 77.66214844 8.48386719 76.94929688 8.44335938 76.21484375 C8.19690319 72.08196318 7.76529947 68.07730976 7 64 C7.721875 63.505 8.44375 63.01 9.1875 62.5 C13.48083221 58.6837047 16.5120493 55.00342068 17.453125 49.2109375 C17.62376989 44.68884786 17.48458816 41.83549682 15.1875 37.875 C11.66146716 34.85268614 8.54891187 34.79013919 4.0078125 34.83203125 C1.41180609 35.04920688 -0.68055553 35.84027777 -3 37 C-3.515625 36.154375 -4.03125 35.30875 -4.5625 34.4375 C-11.51384339 24.15530457 -21.99274694 18.21396198 -33 13 C-34.33473782 12.33614973 -35.66842721 11.67017619 -37 11 C-27.84251778 6.10748729 -19.30573603 1.90963868 -9 0 C-8.113125 -0.1959375 -7.22625 -0.391875 -6.3125 -0.59375 C-3.84830201 -1.02664965 -2.35132939 -0.78377646 0 0 Z " fill="#0E39B2" transform="translate(270,71)"/>
<path d="M0 0 C3.89973629 2.14103169 6.63370605 4.23976853 9 8 C9.90497076 12.18812049 9.91307991 16.25802484 7.8984375 20.1015625 C4.49345533 24.38055079 1.037457 26.09907283 -4 28 C-6.55864906 30.10753523 -7.54084504 32.03321732 -8.65625 35.1171875 C-11.12131698 40.89791017 -15.04860332 44.78696657 -19.5 49.125 C-20.63888672 50.29289062 -20.63888672 50.29289062 -21.80078125 51.484375 C-22.53683594 52.21398437 -23.27289063 52.94359375 -24.03125 53.6953125 C-24.69705078 54.35547363 -25.36285156 55.01563477 -26.04882812 55.69580078 C-28 57 -28 57 -30.24804688 56.70654297 C-30.82619141 56.47338379 -31.40433594 56.24022461 -32 56 C-36.18759353 43.50819557 -36.30992529 30.71726545 -30.5625 18.68359375 C-24.45629903 8.19619358 -12.83190418 -1.25802982 0 0 Z " fill="#0F9EE7" transform="translate(211,223)"/>
<path d="M0 0 C7.86807774 1.8634921 14.50383273 7.25055313 20 13 C23.58513106 11.37815499 26.58992323 9.20743761 29.75 6.875 C30.73484375 6.15054688 31.7196875 5.42609375 32.734375 4.6796875 C33.48203125 4.12539062 34.2296875 3.57109375 35 3 C37.79329599 6.35195519 39.3765745 9.86499817 41.0625 13.875 C41.56910156 15.06867188 42.07570313 16.26234375 42.59765625 17.4921875 C43.85359242 20.63377715 44.97040848 23.77821602 46 27 C46.58378418 27.03963867 47.16756836 27.07927734 47.76904297 27.12011719 C73.50294848 28.95934202 73.50294848 28.95934202 84 39 C81.49754235 40.25122882 79.9679505 39.96673788 77.1875 39.8125 C73.53853569 39.77564177 72.23760393 39.86139771 69 41.75 C64.75709862 46.52326405 64.79193873 49.75816198 65 56 C64.030625 55.67 63.06125 55.34 62.0625 55 C57.70233163 53.73126248 53.50445434 53.81614472 49 54 C48.94392578 52.53240234 48.94392578 52.53240234 48.88671875 51.03515625 C48.4211687 41.75154047 47.81873047 32.68072423 42 25 C37.75983331 22.43955673 33.82842855 22.24946706 29 23 C25.13122542 24.7394711 25.13122542 24.7394711 23 28 C22.28340891 33.42361096 22.60719336 38.69299383 23.5234375 44.07421875 C24.23029976 48.41388948 24.05935754 52.60754173 24 57 C17.565 57.495 17.565 57.495 11 58 C11.66 56.370625 12.32 54.74125 13 53.0625 C15.72631905 45.54095312 16.07420879 39.49338392 13 32 C14.98 31.67 16.96 31.34 19 31 C16.31363282 19.71254491 10.6930823 12.4554097 2.85546875 4.06640625 C1 2 1 2 0 0 Z " fill="#0E38AF" transform="translate(315,209)"/>
<path d="M0 0 C-0.76183594 0.49306641 -0.76183594 0.49306641 -1.5390625 0.99609375 C-9.49369135 6.49283166 -13.65627837 12.37620594 -16 21.8125 C-17.67276191 31.30759941 -16.33685301 40.52661718 -15 50 C-16.03640625 50.68707031 -17.0728125 51.37414062 -18.140625 52.08203125 C-19.51045778 52.99212563 -20.88024716 53.90228531 -22.25 54.8125 C-22.93191406 55.26431641 -23.61382812 55.71613281 -24.31640625 56.18164062 C-25.31220703 56.84389648 -25.31220703 56.84389648 -26.328125 57.51953125 C-26.97201172 57.94572754 -27.61589844 58.37192383 -28.27929688 58.81103516 C-30.13465098 60.05217688 -30.13465098 60.05217688 -32.234375 61.88671875 C-34 63 -34 63 -36.1484375 62.93359375 C-38 62 -38 62 -38.9765625 60.28515625 C-39.19054687 59.55167969 -39.40453125 58.81820312 -39.625 58.0625 C-39.84414062 57.35222656 -40.06328125 56.64195312 -40.2890625 55.91015625 C-42.25699105 47.85462455 -43.32107321 40.37214239 -43.25 32.0625 C-43.25773438 31.13115234 -43.26546875 30.19980469 -43.2734375 29.24023438 C-43.27085937 28.34755859 -43.26828125 27.45488281 -43.265625 26.53515625 C-43.26336914 25.734729 -43.26111328 24.93430176 -43.25878906 24.10961914 C-43 22 -43 22 -41 19 C-40.01 19 -39.02 19 -38 19 C-35.98249998 18.02219209 -35.98249998 18.02219209 -33.859375 16.65625 C-33.04267334 16.15504639 -32.22597168 15.65384277 -31.38452148 15.13745117 C-30.08043335 14.32691284 -30.08043335 14.32691284 -28.75 13.5 C-22.37495997 9.61283681 -15.99622928 5.75840032 -9.4375 2.1875 C-8.82551758 1.84460938 -8.21353516 1.50171875 -7.58300781 1.1484375 C-3.35544483 -1.11848161 -3.35544483 -1.11848161 0 0 Z " fill="#128EE2" transform="translate(282,210)"/>
<path d="M0 0 C1.12277344 0.28875 2.24554688 0.5775 3.40234375 0.875 C17.00099579 4.29024211 26.18757089 4.30083654 40 1 C39.34 1.845625 38.68 2.69125 38 3.5625 C35.67585289 7.55712785 35.35064617 9.45452321 36 14 C38.64491834 19.39563341 41.80946024 21.40473012 47 24 C34.99389503 32.00406998 20.63195551 31.59415885 6.921875 28.90625 C0.55055557 27.5281534 -5.81231225 26.06256258 -12 24 C-9.90893711 19.62183707 -7.39630536 15.47747099 -4.921875 11.30859375 C-2.78374874 7.63069746 -1.19815241 4.08120666 0 0 Z " fill="#0E38B0" transform="translate(310,151)"/>
<path d="M0 0 C2.04077439 2.95273141 3.63758721 6.1154575 5.2199707 9.32763672 C5.57446289 10.04564453 5.92895508 10.76365234 6.29418945 11.50341797 C10.29509154 19.7729405 12.37446931 26.57246952 12.2199707 35.76513672 C9.17916649 36.27093385 6.13750424 36.76994431 3.0949707 37.26513672 C2.2390332 37.40822266 1.3830957 37.55130859 0.5012207 37.69873047 C-3.97674435 38.42209405 -8.22566365 38.94432488 -12.7800293 38.76513672 C-12.96436523 37.77255859 -13.14870117 36.77998047 -13.33862305 35.75732422 C-15.9952277 22.86544766 -21.57484161 13.9624286 -29.7800293 3.76513672 C-25.8513642 2.97620997 -21.91903576 2.20982947 -17.98193359 1.46411133 C-16.64316968 1.20726206 -15.30556839 0.94427404 -13.96923828 0.67504883 C-12.0486591 0.28922137 -10.12334 -0.07277107 -8.19799805 -0.43408203 C-6.46199341 -0.77185669 -6.46199341 -0.77185669 -4.69091797 -1.11645508 C-1.7800293 -1.23486328 -1.7800293 -1.23486328 0 0 Z " fill="#177BDE" transform="translate(431.780029296875,202.23486328125)"/>
<path d="M0 0 C-0.33 1.65 -0.66 3.3 -1 5 C0.00933594 4.96003906 1.01867187 4.92007813 2.05859375 4.87890625 C6.09365532 5.00287742 9.2200592 5.74179029 13.0625 6.9375 C17.37516902 8.26704106 21.53046527 9.35372024 26 10 C25.83886719 10.61875 25.67773438 11.2375 25.51171875 11.875 C24.7941926 16.25683906 24.8093521 20.56657897 24.8125 25 C24.8115332 26.39545044 24.8115332 26.39545044 24.81054688 27.8190918 C24.86567072 35.04845881 25.52644912 41.90853638 27 49 C26.12601563 47.88818359 26.12601563 47.88818359 25.234375 46.75390625 C17.99492371 37.83115597 11.13478697 32.78369674 0 30 C0.66 29.21625 1.32 28.4325 2 27.625 C4.83290482 23.36552525 4.82489886 18.94114417 4 14 C1.86976689 10.3481718 -0.14453981 8.59930201 -4 7 C-12.70051949 7 -20.35964145 10.21896711 -27.109375 15.71875 C-31.71846409 20.53178108 -34.22845747 26.26734348 -36.8359375 32.33984375 C-38 35 -38 35 -39 36 C-40.99958364 36.04080783 -43.00045254 36.04254356 -45 36 C-42.63750554 24.4022999 -37.24999192 14.16119851 -27.4375 7.17578125 C-18.38897211 1.61470682 -10.58709189 -0.27146389 0 0 Z " fill="#0A2D86" transform="translate(215,217)"/>
<path d="M0 0 C1.3125 0.875 2.625 1.75 3.9375 2.625 C4.76378906 3.17285156 5.59007812 3.72070312 6.44140625 4.28515625 C8.04407242 5.35930961 9.63701892 6.44827258 11.21484375 7.55859375 C16.10218469 10.96117289 21.05405855 13.5558695 26.51953125 15.921875 C28.72221485 16.87926189 30.86349825 17.90435808 33 19 C32.48324321 23.22524667 29.87986814 25.85225411 27.1875 28.9375 C26.30555874 29.96707901 25.42404347 30.99702309 24.54296875 32.02734375 C23.70378906 33.00832031 22.86460937 33.98929687 22 35 C20.65926033 36.66071451 19.32315305 38.32523985 18 40 C13.26004937 39.41549742 9.51799517 37.33457038 5.4375 35 C4.73947266 34.60498291 4.04144531 34.20996582 3.32226562 33.80297852 C-3.19294595 30.03590698 -9.12995155 25.70270927 -15 21 C-11.21088884 15.05798477 -7.11073614 9.51192456 -2.63671875 4.06640625 C-0.96508826 2.100822 -0.96508826 2.100822 0 0 Z " fill="#0E9EE7" transform="translate(138,271)"/>
<path d="M0 0 C2.31762604 2.99886763 4.36632415 6.09952754 6.375 9.3125 C9.1164259 13.65454612 11.96386024 17.85980942 15 22 C14.319375 22.37125 13.63875 22.7425 12.9375 23.125 C4.84991268 28.28728978 -1.29627121 34.55191639 -3.81640625 44.08984375 C-4.30135173 46.72482724 -4.70641579 49.3374949 -5 52 C-7 49 -7 49 -8.5625 45.375 C-12.13774973 38.1307674 -18.43015225 31.9114799 -26 29 C-20.04245428 16.47946693 -11.75999743 7.33123244 0 0 Z " fill="#0A2E87" transform="translate(102,132)"/>
<path d="M0 0 C5.70656145 2.5841033 7.83972063 6.37874948 10 12 C11.2929121 16.30970701 11.01815381 20.53416307 11 25 C7.56561785 26.34146494 4.12701583 27.67175905 0.6875 29 C-0.28896484 29.3815625 -1.26542969 29.763125 -2.27148438 30.15625 C-3.20927734 30.5171875 -4.14707031 30.878125 -5.11328125 31.25 C-5.97735596 31.58515625 -6.84143066 31.9203125 -7.73168945 32.265625 C-10 33 -10 33 -13 33 C-18.65632192 10.54305524 -18.65632192 10.54305524 -14.74609375 3.85546875 C-10.47324893 -0.3777209 -5.78818032 -1.2041105 0 0 Z " fill="#177CE0" transform="translate(353,231)"/>
<path d="M0 0 C10.94943496 0.01827952 20.66743034 1.91433464 29.1875 9.25 C29.8475 10.24 30.5075 11.23 31.1875 12.25 C29.97513672 12.18039063 29.97513672 12.18039063 28.73828125 12.109375 C22.12798034 11.77531894 22.12798034 11.77531894 16.0625 14 C12.01095048 18.86185942 11.98010292 22.02808764 12.1875 28.25 C11.218125 27.92 10.24875 27.59 9.25 27.25 C4.88983163 25.98126248 0.69195434 26.06614472 -3.8125 26.25 C-3.84988281 25.28320312 -3.88726562 24.31640625 -3.92578125 23.3203125 C-4.31875826 15.53782671 -5.05537894 8.6196632 -7.8125 1.25 C-5.8895379 -0.6729621 -2.55221267 0.03102994 0 0 Z " fill="#0F3AB4" transform="translate(367.8125,236.75)"/>
<path d="M0 0 C8.17097816 -0.5745219 15.03866386 -0.09440874 22.8125 2.375 C23.86147461 2.70697388 23.86147461 2.70697388 24.93164062 3.0456543 C29.85760688 4.71521375 29.85760688 4.71521375 31 7 C30.154375 7.61875 29.30875 8.2375 28.4375 8.875 C23.6059713 12.86676299 19.79460646 18.41078709 17 24 C14.11862391 23.06549965 11.26067709 22.1003825 8.43359375 21.01171875 C2.879112 18.88726467 -2.06426946 17.44797966 -8 17 C-6.19861732 11.69066157 -4.08840613 7.23945585 -0.98828125 2.56640625 C0.0889327 1.1677292 0.0889327 1.1677292 0 0 Z " fill="#092C84" transform="translate(163,84)"/>
<path d="M0 0 C0 0.66 0 1.32 0 2 C1.75521948 3.73693158 1.75521948 3.73693158 3.9375 5.5 C7.89879154 8.79758308 7.89879154 8.79758308 9 11 C8.23816406 11.14695312 7.47632813 11.29390625 6.69140625 11.4453125 C-0.70075989 13.0511014 -6.03524064 15.38212179 -12 20 C-13.33333333 21 -14.66666667 22 -16 23 C-16.556875 22.61328125 -17.11375 22.2265625 -17.6875 21.828125 C-22.63602134 18.45109355 -27.58500803 15.55095982 -33 13 C-34.3347329 12.33613985 -35.66843499 11.67019166 -37 11 C-27.84251778 6.10748729 -19.30573603 1.90963868 -9 0 C-8.113125 -0.1959375 -7.22625 -0.391875 -6.3125 -0.59375 C-3.84830201 -1.02664965 -2.35132939 -0.78377646 0 0 Z " fill="#092D84" transform="translate(270,71)"/>
<path d="M0 0 C1.54523541 4.33047456 2.28319755 8.40471893 2 13 C0.04965635 15.64720801 -2.02655719 17.24006666 -4.66796875 19.18359375 C-10.82457876 23.97894325 -11.85891334 31.67302251 -13 39 C-16.25516985 35.2473151 -18.36937046 31.53957125 -20.375 27 C-20.91898437 25.80375 -21.46296875 24.6075 -22.0234375 23.375 C-23 20 -23 20 -22.328125 17.30859375 C-17.79236678 9.42437874 -12.3223534 3.6611767 -4.125 -0.4375 C-2 -1 -2 -1 0 0 Z " fill="#0A2D85" transform="translate(290,207)"/>
<path d="M0 0 C4.35641246 0.51251911 7.95446027 1.35991632 12 3 C13.32 3 14.64 3 16 3 C15.83886719 3.61875 15.67773438 4.2375 15.51171875 4.875 C14.7941926 9.25683906 14.8093521 13.56657897 14.8125 18 C14.81185547 18.93030029 14.81121094 19.86060059 14.81054688 20.8190918 C14.86567072 28.04845881 15.52644912 34.90853638 17 42 C16.41992188 41.25878906 15.83984375 40.51757812 15.2421875 39.75390625 C10.51677368 33.95004433 5.43285133 28.8597108 -1 25 C-0.125 20.25 -0.125 20.25 1 18 C1.34251301 11.92543101 1.06390498 5.98446551 0 0 Z " fill="#0E39B2" transform="translate(225,224)"/>
<path d="M0 0 C-7.48110887 11.03016734 -18.37909206 19.30235725 -31.4453125 22.62109375 C-34.32844275 23.04871399 -37.08559022 23.13243472 -40 23.125 C-41.010625 23.12757813 -42.02125 23.13015625 -43.0625 23.1328125 C-45.81714744 23.00826727 -48.31838803 22.62110865 -51 22 C-40.02476267 13.39459289 -25.60357161 8.06058836 -12.8125 2.75 C-11.87486816 2.35538574 -10.93723633 1.96077148 -9.97119141 1.55419922 C-9.10026855 1.20115723 -8.2293457 0.84811523 -7.33203125 0.484375 C-6.56608643 0.17209961 -5.8001416 -0.14017578 -5.01098633 -0.46191406 C-3 -1 -3 -1 0 0 Z " fill="#0BA7E5" transform="translate(287,125)"/>
<path d="M0 0 C1.25144533 0.76848463 2.50108733 1.53990621 3.75 2.3125 C4.44609375 2.74175781 5.1421875 3.17101562 5.859375 3.61328125 C6.56578125 4.07089844 7.2721875 4.52851563 8 5 C8.74765625 5.40347656 9.4953125 5.80695313 10.265625 6.22265625 C12 8 12 8 12.25 11.2578125 C12.1675 12.53398437 12.085 13.81015625 12 15.125 C11.73620884 21.70003404 12.68349865 26.32321484 16 32 C16.6731582 33.33006776 17.34164978 34.66254076 18 36 C12.24237834 34.91103333 6.60752181 33.70663707 1 32 C-0.7271426 25.72368717 -1.19306208 19.66106933 -1.1875 13.1875 C-1.18814453 12.45861572 -1.18878906 11.72973145 -1.18945312 10.97875977 C-1.15124339 7.20250921 -0.90159621 3.67129978 0 0 Z " fill="#092D84" transform="translate(126,216)"/>
<path d="M0 0 C3.55063088 1.69812781 4.79347909 2.69021863 7 6 C7.38499891 7.65549531 7.72793135 9.3222433 8 11 C6.50260417 9.73046875 5.00520833 8.4609375 3.5078125 7.19140625 C0.24931038 4.61668307 -2.62904983 4.58572011 -6.66796875 4.68359375 C-9.60154807 5.08161708 -11.82027215 5.97397709 -13.9765625 8.046875 C-16.73209916 13.30553274 -15.4376817 20.42943659 -14.4765625 26.07421875 C-13.76970024 30.41388948 -13.94064246 34.60754173 -14 39 C-20.435 39.495 -20.435 39.495 -27 40 C-26.34 38.370625 -25.68 36.74125 -25 35.0625 C-22.27368095 27.54095312 -21.92579121 21.49338392 -25 14 C-23.02 13.67 -21.04 13.34 -19 13 C-19 12.01 -19 11.02 -19 10 C-18.34 10 -17.68 10 -17 10 C-16.95875 9.278125 -16.9175 8.55625 -16.875 7.8125 C-15.60534887 3.7314785 -13.42277215 2.51468974 -10 0 C-6.74931825 -1.62534088 -3.43074687 -0.75068166 0 0 Z " fill="#0A2E86" transform="translate(353,227)"/>
<path d="M0 0 C0.33 0 0.66 0 1 0 C1.25188657 2.01812732 1.47542452 4.03980163 1.6875 6.0625 C1.81511719 7.18785156 1.94273437 8.31320313 2.07421875 9.47265625 C1.9999324 13.00321293 1.18342103 14.73494967 -0.30786133 17.84204102 C-1.89966541 22.80498857 -1.29714668 28.28410613 -1.1875 33.4375 C-1.17396484 34.64599609 -1.16042969 35.85449219 -1.14648438 37.09960938 C-1.11129946 40.06687082 -1.06206696 43.03319937 -1 46 C-10.73615678 46.12731816 -10.73615678 46.12731816 -13.56396484 43.60498047 C-14.6571869 41.75219203 -15.4473264 39.95669358 -16.1875 37.9375 C-16.47173828 37.27427734 -16.75597656 36.61105469 -17.04882812 35.92773438 C-17.73909551 34.30151121 -18.37524838 32.65250001 -19 31 C-15.44219804 31.60990891 -12.3171411 32.5783681 -9 34 C-9.06960937 33.27296875 -9.13921875 32.5459375 -9.2109375 31.796875 C-9.66504478 23.36345405 -7.86838334 16.97683159 -3 10 C-2.01 9.67 -1.02 9.34 0 9 C0 6.03 0 3.06 0 0 Z " fill="#092D84" transform="translate(177,113)"/>
<path d="M0 0 C4.84063945 2.33067825 7.56352878 5.22076799 10 10 C10.62303338 16.67535761 8.83852071 22.86295317 7.25 29.3125 C6.99734375 30.38951172 6.7446875 31.46652344 6.484375 32.57617188 C2.16622176 50.39934935 2.16622176 50.39934935 -3 55 C-3.06058594 53.91460937 -3.12117188 52.82921875 -3.18359375 51.7109375 C-3.26806064 50.26561514 -3.35270551 48.82030318 -3.4375 47.375 C-3.47681641 46.66214844 -3.51613281 45.94929688 -3.55664062 45.21484375 C-3.80309681 41.08196318 -4.23470053 37.07730976 -5 33 C-4.278125 32.505 -3.55625 32.01 -2.8125 31.5 C1.48083221 27.6837047 4.5120493 24.00342068 5.453125 18.2109375 C5.62376989 13.68884786 5.48458816 10.83549682 3.1875 6.875 C-0.33853284 3.85268614 -3.45108813 3.79013919 -7.9921875 3.83203125 C-10.58819391 4.04920688 -12.68055553 4.84027777 -15 6 C-11.99778963 -0.92817777 -6.78445507 -0.84673386 0 0 Z " fill="#0A3189" transform="translate(282,102)"/>
<path d="M0 0 C16.25112108 13.5426009 16.25112108 13.5426009 18 20 C17.48286332 22.11634928 16.73176598 23.9781157 15.83984375 25.96484375 C14.60756448 28.95097166 14.3334087 31.79927651 14 35 C12 32 12 32 10.4375 28.375 C6.86225027 21.1307674 0.56984775 14.9114799 -7 12 C-6.02296079 10.1863523 -5.04330895 8.37411183 -4.0625 6.5625 C-3.51722656 5.55316406 -2.97195312 4.54382813 -2.41015625 3.50390625 C-1 1 -1 1 0 0 Z " fill="#092E85" transform="translate(83,149)"/>
<path d="M0 0 C2.69990662 1.79993774 4.5418865 3.083773 6 6 C6.47844415 9.0826338 6.55149629 11.92434762 6 15 C2.95666217 18.63715985 1.12108584 19.82298645 -3.5625 20.5625 C-7.52374737 19.91429589 -9.18799374 18.81200626 -12 16 C-13.60847182 12.78305636 -13.61309149 9.47862778 -13 6 C-9.03891073 1.10075801 -6.2893671 -0.61660462 0 0 Z " fill="#001433" transform="translate(318,406)"/>
<path d="M0 0 C-0.99 1.0209375 -0.99 1.0209375 -2 2.0625 C-4.52217356 5.76694242 -4.61871554 7.59165176 -4 12 C-1.35508166 17.39563341 1.80946024 19.40473012 7 22 C4.62765404 23.58156397 2.66581865 24.69068416 0.0625 25.75 C-0.60652344 26.03359375 -1.27554687 26.3171875 -1.96484375 26.609375 C-4.69413989 27.13323222 -5.71107359 26.52595094 -8 25 C-9.66796875 23.34375 -9.66796875 23.34375 -11.1875 21.5 C-11.69667969 20.8915625 -12.20585937 20.283125 -12.73046875 19.65625 C-14.85793756 16.88072147 -15.13656055 15.12676418 -15.125 11.6875 C-15.12757813 10.92824219 -15.13015625 10.16898438 -15.1328125 9.38671875 C-14.99147509 6.84680229 -14.55309221 4.48013569 -14 2 C-12.04396149 1.47061343 -10.08507711 0.95173199 -8.125 0.4375 C-7.03445313 0.14746094 -5.94390625 -0.14257812 -4.8203125 -0.44140625 C-2 -1 -2 -1 0 0 Z " fill="#0A2E87" transform="translate(350,153)"/>
<path d="M0 0 C0.66 0 1.32 0 2 0 C2.65355469 1.32064453 2.65355469 1.32064453 3.3203125 2.66796875 C7.77619294 11.46673003 7.77619294 11.46673003 15 18 C13.34643078 21.58273331 11.32019297 24.80973467 9 28 C8.34 28 7.68 28 7 28 C5.73828125 26.49609375 5.73828125 26.49609375 4.3125 24.4375 C0.52702914 19.21392134 -3.61440308 14.59039795 -9 11 C-9 8 -9 8 -7.28515625 6.2109375 C-6.18494141 5.30214844 -6.18494141 5.30214844 -5.0625 4.375 C-4.33160156 3.76398438 -3.60070312 3.15296875 -2.84765625 2.5234375 C-2.23792969 2.02070313 -1.62820312 1.51796875 -1 1 C-0.67 0.67 -0.34 0.34 0 0 Z " fill="#0E39B2" transform="translate(93,140)"/>
<path d="M0 0 C7.33544347 -1.02696209 12.45371164 1.89249594 18.73046875 5.2734375 C22.22150165 7.19025005 22.22150165 7.19025005 27 9 C26.67 12.96 26.34 16.92 26 21 C25.67 19.68 25.34 18.36 25 17 C24.29875 16.896875 23.5975 16.79375 22.875 16.6875 C18.78544677 15.70956336 15.23603202 14.19341023 12.1875 11.25 C8.52326301 9.15615029 5.0741978 10.34093859 1 11 C0.67 7.37 0.34 3.74 0 0 Z " fill="#092C83" transform="translate(191,193)"/>
<path d="M0 0 C2.64 0.66 5.28 1.32 8 2 C7.01 2.495 7.01 2.495 6 3 C6.0721875 4.155 6.144375 5.31 6.21875 6.5 C6.21875 11.31917823 4.67538105 14.77522522 2.5 19 C2.16613281 19.67933594 1.83226562 20.35867187 1.48828125 21.05859375 C0.67287048 22.71271274 -0.16159728 24.35741507 -1 26 C-4.63 25.34 -8.26 24.68 -12 24 C-9.82634949 19.65269899 -7.40096868 15.48532767 -4.921875 11.30859375 C-2.78374874 7.63069746 -1.19815241 4.08120666 0 0 Z " fill="#092D83" transform="translate(310,151)"/>
<path d="M0 0 C4.875 4.625 4.875 4.625 6 8 C5.44239961 9.69040959 4.80297011 11.35416911 4.125 13 C1.10409013 21.45854765 1.18590259 30.11385599 1 39 C-0.14082031 37.84371094 -0.14082031 37.84371094 -1.3046875 36.6640625 C-3.20601745 34.78477696 -5.04937522 33.04230515 -7.125 31.375 C-10 29 -10 29 -11.625 27.3125 C-13.26003029 25.75178927 -14.97168349 24.97276404 -17 24 C-15.98679687 23.85304687 -15.98679687 23.85304687 -14.953125 23.703125 C-9.40820497 22.80817233 -9.40820497 22.80817233 -4.5 20.25 C-0.39564864 14.09347297 -0.44150032 7.18018941 0 0 Z " fill="#0A3287" transform="translate(99,195)"/>
<path d="M0 0 C0.33 0.66 0.66 1.32 1 2 C0.67 2.99 0.34 3.98 0 5 C-0.23156541 8.28706131 -0.18979675 11.58059789 -0.1875 14.875 C-0.18814453 15.81432373 -0.18878906 16.75364746 -0.18945312 17.72143555 C-0.13459381 24.98593145 0.5192971 31.87411731 2 39 C1.40832031 38.23171875 0.81664062 37.4634375 0.20703125 36.671875 C-1.79129395 34.07712378 -1.79129395 34.07712378 -3.73828125 32.578125 C-5.82311166 30.81921101 -6.8493627 29.50224208 -8 27 C-8.56226113 18.64049991 -8.10515726 9.45010021 -4 2 C-1.8125 0.5 -1.8125 0.5 0 0 Z " fill="#0A2D87" transform="translate(240,227)"/>
<path d="M0 0 C4.3801967 2.31406618 7.17067584 3.8561283 10 8 C9.19175781 7.95359375 8.38351562 7.9071875 7.55078125 7.859375 C0.94048034 7.52531894 0.94048034 7.52531894 -5.125 9.75 C-9.17654952 14.61185942 -9.20739708 17.77808764 -9 24 C-11.31 23.34 -13.62 22.68 -16 22 C-15.65667657 14.27522274 -13.86645635 9.48019684 -8.0625 4.125 C-4.91750874 1.94276116 -3.71074304 1.45430249 0 2 C0 1.34 0 0.68 0 0 Z " fill="#0A2E87" transform="translate(389,241)"/>
<path d="M0 0 C7.86807774 1.8634921 14.50383273 7.25055313 20 13 C23.58513106 11.37815499 26.58992323 9.20743761 29.75 6.875 C30.73484375 6.15054688 31.7196875 5.42609375 32.734375 4.6796875 C33.48203125 4.12539062 34.2296875 3.57109375 35 3 C35.99 4.32 36.98 5.64 38 7 C37.43410156 7.26039063 36.86820312 7.52078125 36.28515625 7.7890625 C33.7867352 9.11301212 31.67188096 10.64344927 29.4375 12.375 C28.67308594 12.96023437 27.90867187 13.54546875 27.12109375 14.1484375 C24.93151298 15.92706651 24.93151298 15.92706651 23.34765625 18.2265625 C22.90292969 18.81179687 22.45820313 19.39703125 22 20 C21.34 20 20.68 20 20 20 C19.071875 18.7625 19.071875 18.7625 18.125 17.5 C17.42375 16.675 16.7225 15.85 16 15 C14.68 15 13.36 15 12 15 C10.25390625 13.2421875 10.25390625 13.2421875 8.5625 10.875 C7.964375 10.05902344 7.36625 9.24304688 6.75 8.40234375 C5.88375 7.21318359 5.88375 7.21318359 5 6 C3.36236364 3.97342501 1.68314063 1.98916619 0 0 Z " fill="#0A2E86" transform="translate(315,209)"/>
<path d="M0 0 C0.33 0 0.66 0 1 0 C1.62372241 17.94934478 1.62372241 17.94934478 -3.359375 23.51953125 C-5.80072656 25.80357923 -7.53122105 26.94904577 -10.875 27.3125 C-11.57625 27.209375 -12.2775 27.10625 -13 27 C-12.12848385 25.95541681 -11.25253033 24.91453593 -10.375 23.875 C-9.83230469 23.22402344 -9.28960937 22.57304687 -8.73046875 21.90234375 C-7 20 -7 20 -5.30078125 18.69140625 C-2.06282284 16.17473639 -1.11348037 14.66233967 -0.40234375 10.51171875 C-0.15168975 6.99903244 -0.00964669 3.52104164 0 0 Z " fill="#0AB0E8" transform="translate(98,192)"/>
<path d="M0 0 C1.33332095 2.6666419 0.67102033 4.16680303 0 7 C-0.66 7 -1.32 7 -2 7 C-2.226875 7.721875 -2.45375 8.44375 -2.6875 9.1875 C-4.24831013 12.53209313 -6.3031287 14.51603959 -9 17 C-9.3125 13.8125 -9.3125 13.8125 -9 10 C-6.75 7.375 -6.75 7.375 -4 5 C-2.64444707 3.35135455 -1.30368347 1.68996005 0 0 Z " fill="#0E3AB1" transform="translate(288,130)"/>
</svg>
