<?xml version="1.0" encoding="UTF-8"?>
<svg version="1.1" xmlns="http://www.w3.org/2000/svg" width="640" height="296">
<path d="M0 0 C5.13037177 3.77535555 5.13037177 3.77535555 7.15234375 6.1171875 C9.38376383 8.04677298 11.3881189 8.27079919 14.26953125 8.828125 C26.66281553 11.75473189 36.09294771 18.50315996 43.46875 28.9140625 C46.15317758 33.42143946 47.43580391 37.28722999 47.76953125 42.515625 C48.42953125 42.721875 49.08953125 42.928125 49.76953125 43.140625 C56.56279038 46.2542021 61.30794601 50.67713902 65.54296875 56.78125 C66.79137522 58.65015964 66.79137522 58.65015964 68.76953125 60.515625 C72.38874267 70.22409359 74.45262314 79.74140257 71.70703125 89.890625 C70.7937518 93.4219722 70.51546894 95.13930341 71.76953125 98.515625 C72.48496094 99.22912109 72.48496094 99.22912109 73.21484375 99.95703125 C78.04924868 104.80358293 78.12553907 111.43166757 78.20703125 117.890625 C78.11592136 129.00842979 74.66420574 137.46539042 66.76953125 145.515625 C66.10953125 145.515625 65.44953125 145.515625 64.76953125 145.515625 C64.76953125 146.175625 64.76953125 146.835625 64.76953125 147.515625 C55.70625687 154.22645995 46.93339685 156.46846448 35.76953125 155.515625 C31.14628642 154.51057178 26.93201047 153.14530124 22.76953125 150.890625 C18.27758175 150.32913131 16.29089075 152.70143016 12.80859375 155.37890625 C9.2802424 157.85963657 5.64645183 159.71092332 1.76953125 161.578125 C-3.77459041 164.26097381 -9.09759629 167.09262295 -14.3125 170.38671875 C-16.23046875 171.515625 -16.23046875 171.515625 -19.23046875 172.515625 C-19.23046875 173.175625 -19.23046875 173.835625 -19.23046875 174.515625 C-20.60546875 176.140625 -20.60546875 176.140625 -22.23046875 177.515625 C-22.89046875 177.515625 -23.55046875 177.515625 -24.23046875 177.515625 C-24.51148438 178.23105469 -24.7925 178.94648438 -25.08203125 179.68359375 C-25.81512741 181.49139891 -26.57803033 183.28759001 -27.37890625 185.06640625 C-29.92913956 190.80849208 -31.8140874 196.4161877 -33.23046875 202.515625 C-35.75951876 213.2717359 -39.65512348 222.56773247 -46.23046875 231.515625 C-44.53450979 230.67837944 -42.84911966 229.81972096 -41.16796875 228.953125 C-40.22824219 228.47746094 -39.28851563 228.00179687 -38.3203125 227.51171875 C-30.70868647 222.59447361 -26.6251252 216.34348806 -22.54296875 208.390625 C-16.65683325 197.11368096 -16.65683325 197.11368096 -13.23046875 193.515625 C-12.57046875 193.515625 -11.91046875 193.515625 -11.23046875 193.515625 C-10.90046875 192.525625 -10.57046875 191.535625 -10.23046875 190.515625 C2.53314061 179.79220271 16.24246029 176.16366948 32.65234375 176.21484375 C35.76953125 176.515625 35.76953125 176.515625 38.76953125 178.515625 C37.65723374 192.28406448 28.67386164 203.41981137 18.76953125 212.515625 C9.65262792 219.52202043 1.45329724 221.57150578 -9.828125 222.85546875 C-15.49200703 223.95443093 -19.28939011 226.17584821 -23.16796875 230.390625 C-31.9189478 239.38787926 -42.37292946 243.8640532 -54.35546875 247.328125 C-60.29936415 249.20930466 -64.50229498 252.48027578 -69.34375 256.328125 C-78.4317758 263.21485633 -88.78583954 266.80622995 -100.23046875 265.515625 C-100.89046875 264.855625 -101.55046875 264.195625 -102.23046875 263.515625 C-102.23046875 260.140625 -102.23046875 260.140625 -101.23046875 256.515625 C-98.05343741 253.57687101 -95.26998189 252.43002184 -91.10546875 251.703125 C-80.82607155 249.69570063 -71.62029391 242.62468562 -65.23046875 234.515625 C-63.79075375 231.79379693 -63.09011368 230.32266667 -63.62109375 227.26953125 C-63.9046875 226.54636719 -64.18828125 225.82320312 -64.48046875 225.078125 C-64.77050781 224.30726563 -65.06054688 223.53640625 -65.359375 222.7421875 C-65.64683594 222.00742188 -65.93429688 221.27265625 -66.23046875 220.515625 C-66.89713542 218.515625 -67.56380208 216.515625 -68.23046875 214.515625 C-68.84792969 214.5878125 -69.46539062 214.66 -70.1015625 214.734375 C-89.83759914 216.89722833 -105.58034106 213.08270101 -121.80859375 201.50390625 C-123.00742188 200.51970703 -123.00742188 200.51970703 -124.23046875 199.515625 C-124.23046875 198.855625 -124.23046875 198.195625 -124.23046875 197.515625 C-124.89046875 197.515625 -125.55046875 197.515625 -126.23046875 197.515625 C-134.03442746 188.72495887 -142.26341683 175.26876019 -144.23046875 163.515625 C-143.79296875 161.2734375 -143.79296875 161.2734375 -143.23046875 159.515625 C-124.98314244 154.64967132 -105.12583687 156.66312837 -88.4921875 165.4921875 C-83.47815188 168.60269103 -79.37398474 172.34235306 -75.23046875 176.515625 C-74.58464844 177.12535156 -73.93882813 177.73507813 -73.2734375 178.36328125 C-61.89908889 189.24201554 -55.04983182 203.03732177 -52.23046875 218.515625 C-48.49493565 211.25126814 -46.60292626 204.36107797 -45.41796875 196.328125 C-45.2327063 195.08240723 -45.2327063 195.08240723 -45.04370117 193.81152344 C-43.36763424 181.40149594 -43.68655193 169.12017538 -51.36328125 158.6171875 C-59.73434922 149.19535786 -69.88423917 144.25995806 -82.40234375 143.359375 C-85.44942154 143.31213348 -88.34782798 143.53440248 -91.35546875 144.015625 C-101.03848989 145.26504708 -109.45109749 145.03219169 -118.609375 141.48828125 C-121.14718144 140.54653192 -123.56731216 139.9731293 -126.23046875 139.515625 C-126.56046875 138.525625 -126.89046875 137.535625 -127.23046875 136.515625 C-128.96556617 135.13087142 -128.96556617 135.13087142 -131.04296875 133.828125 C-134.87525955 131.09273318 -136.65187981 128.56493292 -138.44140625 124.25 C-139.20112547 122.31109782 -139.20112547 122.31109782 -141.23046875 120.515625 C-143.02853592 112.0647093 -142.50408043 103.31340011 -141.3515625 94.8046875 C-141.21373302 92.19926572 -141.70904728 90.07021509 -142.23046875 87.515625 C-143.08974547 73.05664173 -140.82099205 61.65948324 -131.37890625 50.28515625 C-126.89826236 45.52781921 -122.1022236 42.34276622 -116.23046875 39.515625 C-116.23046875 38.195625 -116.23046875 36.875625 -116.23046875 35.515625 C-115.57046875 35.515625 -114.91046875 35.515625 -114.23046875 35.515625 C-114.11703125 34.77957031 -114.00359375 34.04351562 -113.88671875 33.28515625 C-111.91645125 24.97015827 -104.95915305 18.34144523 -98.23046875 13.515625 C-88.16708288 7.47283538 -78.902666 4.21642751 -67.04296875 4.765625 C-61.58985197 4.87820548 -59.1232034 3.63173612 -55.07421875 0.10546875 C-39.94519025 -12.94011303 -15.70948778 -10.45465036 0 0 Z M-4.56640625 200.734375 C-6.27265795 202.56078527 -7.23965137 204.23374255 -8.23046875 206.515625 C-4.45975079 204.79662122 -1.12331164 202.49484252 2.26953125 200.140625 C2.83800781 199.75390625 3.40648437 199.3671875 3.9921875 198.96875 C7.23259776 196.72828073 10.08392584 194.3987014 12.76953125 191.515625 C5.83861591 191.515625 0.42395749 196.36035101 -4.56640625 200.734375 Z " fill="#5E613B" transform="translate(176.23046875,16.484375)"/>
<path d="M0 0 C6.36178922 4.51745399 11.1053909 10.1518574 13.69140625 17.57421875 C14.13040451 20.51001961 14.37291798 23.38733387 14.515625 26.3515625 C14.44722855 28.54642689 14.44722855 28.54642689 15.69140625 29.57421875 C17.69098989 29.61502658 19.69185879 29.61676231 21.69140625 29.57421875 C23.04259774 26.87183577 22.82377753 24.71407429 22.81640625 21.69921875 C22.81898438 20.64992188 22.8215625 19.600625 22.82421875 18.51953125 C22.71139289 16.0174519 22.41649387 13.95664952 21.69140625 11.57421875 C30.6514923 13.81424026 36.96490671 19.84701391 41.69140625 27.57421875 C44.68878013 34.25018785 44.26874962 40.49279255 41.78515625 47.2421875 C37.51894207 56.33836559 30.64521561 61.93616794 21.34375 65.46484375 C16.89191131 66.79122358 12.39336513 67.63577473 7.81640625 68.39453125 C-8.1696431 71.08921838 -22.89134421 75.28323864 -33.08203125 88.953125 C-39.05081207 98.25568828 -40.79051533 107.20016695 -40.55859375 118.13671875 C-40.55085938 119.60141602 -40.55085938 119.60141602 -40.54296875 121.09570312 C-40.4799069 126.9880451 -40.0564637 132.72997695 -39.30859375 138.57421875 C-39.7994043 138.17509277 -40.29021484 137.7759668 -40.79589844 137.36474609 C-50.93828856 129.21992921 -62.07359761 124.16256278 -75.17578125 124.51953125 C-76.65363645 124.54482502 -78.13150153 124.56954685 -79.609375 124.59375 C-81.89567342 124.6432073 -84.18143003 124.69915537 -86.46728516 124.76611328 C-98.36516404 125.09155602 -107.95629227 124.04648836 -117.55078125 116.3359375 C-122.89698485 110.97785345 -124.90433569 104.98561658 -125.30859375 97.57421875 C-124.64859375 97.57421875 -123.98859375 97.57421875 -123.30859375 97.57421875 C-123.30859375 98.23421875 -123.30859375 98.89421875 -123.30859375 99.57421875 C-122.62796875 99.84234375 -121.94734375 100.11046875 -121.24609375 100.38671875 C-119.12806134 101.24294462 -117.04714156 102.19304435 -114.99609375 103.19921875 C-108.46165981 105.63578734 -102.84005462 105.03892097 -96.30859375 102.57421875 C-91.49897449 99.66607687 -89.14611547 95.77720145 -87.30859375 90.57421875 C-86.88750091 87.27928681 -86.88750091 87.27928681 -87.30859375 84.57421875 C-88.3750449 83.27788254 -88.3750449 83.27788254 -90.87109375 83.51171875 C-91.67546875 83.53234375 -92.47984375 83.55296875 -93.30859375 83.57421875 C-93.76298828 84.49654297 -93.76298828 84.49654297 -94.2265625 85.4375 C-98.63595045 93.9442269 -98.63595045 93.9442269 -103.30859375 95.57421875 C-107.47348347 96.25698756 -109.75993254 96.46569901 -113.42578125 94.35546875 C-119.74263388 89.30198665 -123.70235071 83.24711863 -124.75 75.171875 C-125.16456559 62.85526518 -121.78893201 55.54609166 -113.52734375 46.60546875 C-111.50025547 44.74968371 -109.82550052 43.6267434 -107.30859375 42.57421875 C-107.12425781 43.18007812 -106.93992187 43.7859375 -106.75 44.41015625 C-103.35770374 54.21012322 -97.5358176 61.19460898 -88.37109375 66.13671875 C-83.13226883 68.51129496 -78.08901617 69.83905882 -72.30859375 69.57421875 C-71.64859375 69.24421875 -70.98859375 68.91421875 -70.30859375 68.57421875 C-70.30859375 66.92421875 -70.30859375 65.27421875 -70.30859375 63.57421875 C-74.7295329 61.60309292 -74.7295329 61.60309292 -79.2734375 59.953125 C-86.35589083 57.69515473 -91.99476562 53.33262545 -95.80859375 46.88671875 C-98.6090253 40.48928845 -98.1113028 33.40730953 -96.24609375 26.82421875 C-90.23696775 16.7443945 -82.00531673 10.06926887 -70.6171875 7.03125 C-67.8045922 6.47444179 -65.16566682 6.34866035 -62.30859375 6.57421875 C-62.54642578 7.78851563 -62.54642578 7.78851563 -62.7890625 9.02734375 C-64.72171514 22.22169408 -64.22975234 33.96201671 -56.24609375 45.01171875 C-52.8235675 49.77519093 -52.8235675 49.77519093 -47.74609375 51.88671875 C-45.13062956 51.80388622 -45.13062956 51.80388622 -43.30859375 49.57421875 C-43.2007039 45.04284489 -44.742524 42.83894057 -47.68359375 39.63671875 C-53.64378114 33.12579536 -54.90395425 27.44326016 -54.64453125 18.72265625 C-53.79306691 10.74265323 -49.70136928 6.37886907 -43.6875 1.3359375 C-30.96136236 -8.08850926 -13.40258346 -8.27739926 0 0 Z " fill="#E7B549" transform="translate(169.30859375,25.42578125)"/>
<path d="M0 0 C6.45525983 2.21449737 9.98611991 6.4904312 13.3359375 12.328125 C16.62873274 19.56760389 17.55438082 27.1167682 15.1171875 34.7734375 C11.96356542 41.728114 7.16150679 47.08527992 0 50 C-6.5357133 50.76019626 -11.20616774 50.17281291 -17 47 C-19.78647557 47.20435808 -19.78647557 47.20435808 -22 48 C-22 50.31 -22 52.62 -22 55 C-11.29715197 59.54060219 -3.3149119 60.41714633 7.53515625 56.15625 C10.40933438 54.8079826 12.7156817 53.2055487 15 51 C17.69657445 51.98874397 18.78888177 52.58371053 20.109375 55.1875 C22.09612284 61.46144055 22.22510328 69.23527853 19.5 75.3125 C15.47916566 82.01862653 9.65982961 87.99086436 2 90 C-5.89255771 90.92237062 -12.81937168 90.3225035 -19.9609375 86.6796875 C-22 85 -22 85 -22.7265625 82.9453125 C-22.82740206 81.41148967 -22.87094129 79.87305247 -22.86328125 78.3359375 C-23.15727915 73.31277343 -26.32104122 69.58744321 -29.86328125 66.23828125 C-37.25401581 60.31134266 -44.7138454 59.30916151 -54 60 C-55.29633621 61.06645115 -55.29633621 61.06645115 -55.0625 63.5625 C-55.041875 64.366875 -55.02125 65.17125 -55 66 C-53.98679688 66.23074219 -52.97359375 66.46148437 -51.9296875 66.69921875 C-37.76750227 70.08586661 -37.76750227 70.08586661 -32.5625 76.875 C-31.6676762 80.25544546 -32.12791422 82.62793497 -33 86 C-37.79200927 93.68629806 -46.16797025 96.24929227 -54.12304688 99.88085938 C-61.93367071 103.58584117 -67.91082545 107.86579522 -74 114 C-74.99 114.99 -74.99 114.99 -76 116 C-76.15855469 115.13761719 -76.31710938 114.27523437 -76.48046875 113.38671875 C-77.57246075 107.67336837 -78.6556243 102.02264918 -80.3125 96.44140625 C-84.27639944 83.04252716 -87.33404538 67.77885576 -81.45703125 54.42578125 C-75.21560224 44.03455493 -66.48514982 37.5083406 -55 34 C-52.0825425 33.38103472 -49.15794454 32.86811756 -46.21826172 32.36572266 C-32.87589849 30.07215604 -17.90049697 26.87023732 -8.4609375 16.20703125 C-5.08590903 11.10839199 -2.53339346 5.55190482 0 0 Z " fill="#97965F" transform="translate(222,71)"/>
<path d="M0 0 C3.58575023 2.77638117 6.80745112 5.78452438 10 9 C10.64582031 9.60972656 11.29164062 10.21945313 11.95703125 10.84765625 C17.86207336 16.49539805 22.96006897 21.68055173 24 30 C24.598125 31.093125 25.19625 32.18625 25.8125 33.3125 C28.06667087 37.58793847 29.22436084 42.02110146 30.375 46.6875 C30.56682861 47.42460205 30.75865723 48.1617041 30.95629883 48.92114258 C31.97634635 53.27324662 32.3417282 56.1065242 30 60 C28.14924892 61.94185022 26.14778065 63.36581907 24 65 C22.26445622 62.39668433 21.42617374 60.60192714 20.5 57.6875 C20.24605469 56.89859375 19.99210937 56.1096875 19.73046875 55.296875 C19.48941406 54.53890625 19.24835938 53.7809375 19 53 C18.608125 51.824375 18.21625 50.64875 17.8125 49.4375 C17.4103125 48.2309375 17.4103125 48.2309375 17 47 C16.07380859 47.10828125 16.07380859 47.10828125 15.12890625 47.21875 C-4.60713039 49.38160333 -20.34987231 45.56707601 -36.578125 33.98828125 C-37.37734375 33.33214844 -38.1765625 32.67601562 -39 32 C-39 31.34 -39 30.68 -39 30 C-39.66 30 -40.32 30 -41 30 C-48.80395871 21.20933387 -57.03294808 7.75313519 -59 -4 C-58.5625 -6.2421875 -58.5625 -6.2421875 -58 -8 C-38.48164773 -13.20489394 -17.17279975 -10.65330571 0 0 Z " fill="#8F653C" transform="translate(91,184)"/>
<path d="M0 0 C3.44022608 2.7817453 6.68511792 5.67339917 9.8125 8.80078125 C9.78515625 10.66015625 9.78515625 10.66015625 8.8125 12.80078125 C6.30859375 14.94140625 6.30859375 14.94140625 3.25 17.05078125 C2.23808594 17.7571875 1.22617187 18.46359375 0.18359375 19.19140625 C-0.59886719 19.7225 -1.38132812 20.25359375 -2.1875 20.80078125 C-3.67035242 19.84816091 -5.14868201 18.8884972 -6.625 17.92578125 C-7.44871094 17.39210938 -8.27242188 16.8584375 -9.12109375 16.30859375 C-11.1875 14.80078125 -11.1875 14.80078125 -12.1875 12.80078125 C-18.26098075 10.57383831 -26.8835217 10.50053722 -32.84765625 12.84765625 C-36.67025493 15.20348371 -36.67025493 15.20348371 -39.1875 18.80078125 C-39.8475 18.80078125 -40.5075 18.80078125 -41.1875 18.80078125 C-44.47664304 28.00255047 -45.76333666 36.35756764 -42.2265625 45.6953125 C-39.64493767 50.92649966 -35.95086906 55.35575003 -30.3046875 57.36328125 C-24.31790223 58.60040293 -17.71841131 59.04561785 -12.1875 56.11328125 C-7.95913097 52.85391346 -5.49192674 49.55051671 -3.1875 44.80078125 C-4.47527344 44.81238281 -5.76304687 44.82398438 -7.08984375 44.8359375 C-8.76822772 44.84531395 -10.44661326 44.8544143 -12.125 44.86328125 C-13.40020508 44.87584961 -13.40020508 44.87584961 -14.70117188 44.88867188 C-15.51005859 44.89189453 -16.31894531 44.89511719 -17.15234375 44.8984375 C-17.9012085 44.90367432 -18.65007324 44.90891113 -19.42163086 44.91430664 C-21.1875 44.80078125 -21.1875 44.80078125 -22.1875 43.80078125 C-22.42177778 41.78483543 -22.60086124 39.76230725 -22.75 37.73828125 C-22.83378906 36.63355469 -22.91757812 35.52882812 -23.00390625 34.390625 C-23.09478516 33.10865234 -23.09478516 33.10865234 -23.1875 31.80078125 C-19.96146455 30.18776352 -16.44039962 30.68024526 -12.8984375 30.703125 C-11.67080185 30.70524742 -11.67080185 30.70524742 -10.41836548 30.70741272 C-7.79970675 30.71301835 -5.18113296 30.72557177 -2.5625 30.73828125 C-0.78906373 30.74329553 0.98437387 30.74785856 2.7578125 30.75195312 C7.10940782 30.76298961 11.4609395 30.780258 15.8125 30.80078125 C17.95785579 38.4255467 15.33765824 47.82013193 11.8125 54.80078125 C9.9822114 57.92650199 8.13060281 61.01130934 5.8125 63.80078125 C5.1525 63.80078125 4.4925 63.80078125 3.8125 63.80078125 C3.8125 64.46078125 3.8125 65.12078125 3.8125 65.80078125 C-4.51888559 72.60693287 -14.01006028 76.37565763 -24.8125 75.67578125 C-37.33483883 73.95104018 -47.60493366 69.11469127 -55.6484375 59.05078125 C-63.07705218 48.19067451 -63.65032821 36.57440613 -62.1875 23.80078125 C-60.14926482 14.32298766 -54.47096779 7.03800504 -47.1875 0.80078125 C-33.01762762 -8.15232219 -14.3157427 -9.87716071 0 0 Z " fill="#8C613A" transform="translate(353.1875,55.19921875)"/>
<path d="M0 0 C10.085625 -0.12375 10.085625 -0.12375 20.375 -0.25 C22.47665527 -0.28641602 24.57831055 -0.32283203 26.74365234 -0.36035156 C28.4410704 -0.37205244 30.13849982 -0.38224094 31.8359375 -0.390625 C32.6916333 -0.41108887 33.5473291 -0.43155273 34.42895508 -0.45263672 C41.7754064 -0.45680728 48.55438578 1.282727 54.40234375 5.89453125 C60.87146446 13.97681692 63.02006981 20.6151226 62 31 C59.58455282 39.18568211 54.18814274 44.72134361 47 49 C47.391875 49.495 47.78375 49.99 48.1875 50.5 C50.22540756 53.31090698 52.01857227 56.22692618 53.81640625 59.1953125 C55.00418197 61.13984481 55.00418197 61.13984481 57 63 C57.97809704 64.72797144 58.95467931 66.4568813 59.9140625 68.1953125 C61.07584677 70.23137878 61.07584677 70.23137878 63.25 72.6875 C65 75 65 75 65 79 C62.60471406 79.25007388 60.21120675 79.47552126 57.8125 79.6875 C57.13896484 79.76033203 56.46542969 79.83316406 55.77148438 79.90820312 C52.65353541 80.16676475 50.26597849 80.09940218 47.32421875 79 C44.07992073 76.20826792 42.15493241 72.97925218 40 69.3125 C39.5875 68.62994141 39.175 67.94738281 38.75 67.24414062 C37.91789791 65.8672717 37.09104725 64.48721517 36.26953125 63.10400391 C34.54625239 60.24800059 32.73624443 57.44937437 30.91796875 54.65307617 C30 53 30 53 30 51 C25.38 51 20.76 51 16 51 C16.33 51.66 16.66 52.32 17 53 C17.09654864 54.78961105 17.13075451 56.58278765 17.1328125 58.375 C17.13474609 59.97601563 17.13474609 59.97601563 17.13671875 61.609375 C17.13285156 62.72828125 17.12898438 63.8471875 17.125 65 C17.13080078 66.67835937 17.13080078 66.67835937 17.13671875 68.390625 C17.13542969 69.45796875 17.13414062 70.5253125 17.1328125 71.625 C17.13168457 72.60726562 17.13055664 73.58953125 17.12939453 74.6015625 C17 77 17 77 16 79 C10.72 79 5.44 79 0 79 C0 52.93 0 26.86 0 0 Z M16 16 C16 22.27 16 28.54 16 35 C20.4859375 35.0928125 20.4859375 35.0928125 25.0625 35.1875 C25.99070557 35.21481201 26.91891113 35.24212402 27.87524414 35.27026367 C33.36179342 35.32478329 37.18628921 34.70341994 42 32 C44.32916074 28.84308929 44.32916074 28.84308929 45 25 C43.68952831 20.17494912 43.68952831 20.17494912 40.20410156 16.81298828 C37.59746389 15.85152357 35.57259595 15.77241168 32.796875 15.8046875 C31.8171875 15.81113281 30.8375 15.81757812 29.828125 15.82421875 C28.81234375 15.84097656 27.7965625 15.85773438 26.75 15.875 C25.71875 15.88402344 24.6875 15.89304687 23.625 15.90234375 C21.08323384 15.92587862 18.54158728 15.96174869 16 16 Z " fill="#895F39" transform="translate(378,50)"/>
<path d="M0 0 C17.49 0 34.98 0 53 0 C53 4.95 53 9.9 53 15 C52 16 52 16 48.58178711 16.11352539 C47.06363012 16.11336628 45.54546771 16.10767226 44.02734375 16.09765625 C43.22970108 16.0962413 42.43205841 16.09482635 41.61024475 16.09336853 C39.05262565 16.08775316 36.49509282 16.07519812 33.9375 16.0625 C32.20768355 16.05748698 30.47786574 16.05292373 28.74804688 16.04882812 C24.49863761 16.03862791 20.24941584 16.01905568 16 16 C16 21.61 16 27.22 16 33 C26.89 33 37.78 33 49 33 C49 37.29 49 41.58 49 46 C48 47 48 47 44.94897461 47.11352539 C43.60008729 47.11336634 42.25119386 47.10767612 40.90234375 47.09765625 C39.83905602 47.09553383 39.83905602 47.09553383 38.75428772 47.09336853 C36.48198288 47.08775443 34.20977525 47.07519963 31.9375 47.0625 C30.40039204 47.05748681 28.86328255 47.05292359 27.32617188 47.04882812 C23.55074358 47.03778042 19.77538829 47.02050641 16 47 C16.12568359 47.8353125 16.12568359 47.8353125 16.25390625 48.6875 C16.35574219 49.450625 16.45757812 50.21375 16.5625 51 C16.66691406 51.7425 16.77132813 52.485 16.87890625 53.25 C17 56 17 56 16 64 C27.88 64 39.76 64 52 64 C53.30459914 66.60919828 53.1326594 68.58942615 53.125 71.5 C53.12886719 72.96953125 53.12886719 72.96953125 53.1328125 74.46875 C53 77 53 77 52 79 C34.84 79 17.68 79 0 79 C0 52.93 0 26.86 0 0 Z " fill="#93653D" transform="translate(453,50)"/>
<path d="M0 0 C3.29296875 0.01171875 3.29296875 0.01171875 6.1875 0.4375 C8.8125 3.3125 8.8125 3.3125 10.1875 6.4375 C10.8475 7.0975 11.5075 7.7575 12.1875 8.4375 C12.93055277 9.85736441 13.63311798 11.29859295 14.3125 12.75 C17.48856644 19.26427441 21.32064052 25.31577209 25.1875 31.4375 C25.66058594 30.60089844 26.13367188 29.76429688 26.62109375 28.90234375 C27.2886253 27.72631423 27.95663271 26.55055475 28.625 25.375 C28.97755859 24.75463867 29.33011719 24.13427734 29.69335938 23.49511719 C31.66154342 20.04993338 33.66312867 16.62974727 35.72265625 13.23828125 C36.33959351 12.22229858 36.33959351 12.22229858 36.96899414 11.18579102 C37.77286502 9.86748143 38.58056913 8.55150061 39.39233398 7.23803711 C41.4964146 4.06965008 41.4964146 4.06965008 42.1875 0.4375 C46.8075 0.4375 51.4275 0.4375 56.1875 0.4375 C56.1875 20.2375 56.1875 40.0375 56.1875 60.4375 C52.5575 60.7675 48.9275 61.0975 45.1875 61.4375 C41.86278193 57.00454258 41.82482217 56.00101543 41.89453125 50.703125 C41.9090332 48.75986328 41.9090332 48.75986328 41.92382812 46.77734375 C41.94889217 45.41405646 41.97428698 44.05077521 42 42.6875 C42.01505482 41.30860816 42.02874183 39.92970065 42.04101562 38.55078125 C42.07638091 35.17929085 42.12574096 31.80859346 42.1875 28.4375 C41.01557953 30.39269384 39.8501071 32.3517539 38.6875 34.3125 C38.0378125 35.40304688 37.388125 36.49359375 36.71875 37.6171875 C35.02845147 40.19557672 35.02845147 40.19557672 35.1875 42.4375 C34.5275 42.4375 33.8675 42.4375 33.1875 42.4375 C32.919375 43.18 32.65125 43.9225 32.375 44.6875 C30.31594037 49.45584862 30.31594037 49.45584862 28.1875 51.4375 C24.828125 51.875 24.828125 51.875 21.1875 51.4375 C18.96484375 49.19921875 18.96484375 49.19921875 17.125 46.125 C16.51527344 45.13886719 15.90554688 44.15273437 15.27734375 43.13671875 C12.52639287 38.26727859 9.86561419 33.34737602 7.1875 28.4375 C6.8575 38.9975 6.5275 49.5575 6.1875 60.4375 C1.8975 60.4375 -2.3925 60.4375 -6.8125 60.4375 C-6.83505523 52.76213023 -6.85341753 45.08677271 -6.86431217 37.41137791 C-6.86953995 33.84772578 -6.87663569 30.28409743 -6.88793945 26.72045898 C-6.90084176 22.62743903 -6.90572906 18.5344442 -6.91015625 14.44140625 C-6.91531754 13.15601456 -6.92047882 11.87062286 -6.92579651 10.54627991 C-6.92587204 9.36513107 -6.92594757 8.18398224 -6.92602539 6.96704102 C-6.928246 5.92113297 -6.93046661 4.87522491 -6.93275452 3.79762268 C-6.70314154 -0.70877596 -3.95407671 0.15778057 0 0 Z " fill="#585B36" transform="translate(302.8125,149.5625)"/>
<path d="M0 0 C6.6 0 13.2 0 20 0 C25.11724992 9.61422712 30.19703363 19.2245508 35 29 C40.48687202 19.50161489 45.55155586 10.03751499 50 0 C56.6 0 63.2 0 70 0 C69.11488858 5.31066849 68.4901104 7.35485448 65.8125 11.6875 C62.99795665 16.33860396 60.31550548 21.00407115 57.81640625 25.83203125 C56.38262633 28.33266677 54.91683317 30.51659958 53.21484375 32.82421875 C43.01301798 47.36615729 43.4425327 61.86322502 44 79 C41.35409986 79.02684679 38.70846904 79.04676357 36.0625 79.0625 C35.30775391 79.07087891 34.55300781 79.07925781 33.77539062 79.08789062 C31.85005687 79.09652441 29.92464419 79.05224333 28 79 C26.14610303 77.14610303 26.84722832 74.0660047 26.82421875 71.5859375 C26.80037109 70.26722656 26.77652344 68.94851562 26.75195312 67.58984375 C26.71701225 65.48997068 26.68760084 63.39065402 26.67407227 61.29052734 C26.71534809 50.4674047 26.71534809 50.4674047 22 41 C21.34 41 20.68 41 20 41 C19.89558594 40.278125 19.79117188 39.55625 19.68359375 38.8125 C18.93287045 35.72380986 17.76912658 33.67051592 16.0625 31 C14.42664176 28.42764306 13.0374384 26.09654445 11.93359375 23.25 C11.22030915 20.83734649 11.22030915 20.83734649 9 20 C8.3162955 18.67532254 7.65035814 17.34136367 7 16 C6.34 15.34 5.68 14.68 5 14 C5 13.34 5 12.68 5 12 C3.73339467 9.95708818 2.40113616 7.95309888 1 6 C0.67 6 0.34 6 0 6 C0 4.02 0 2.04 0 0 Z " fill="#8E623B" transform="translate(516,50)"/>
<path d="M0 0 C8.96008605 2.24002151 15.27350046 8.27279516 20 16 C22.99737388 22.6759691 22.57734337 28.9185738 20.09375 35.66796875 C15.82753582 44.76414684 8.95380936 50.36194919 -0.34765625 53.890625 C-4.79949494 55.21700483 -9.29804112 56.06155598 -13.875 56.8203125 C-28.46514229 59.28190889 -39.91428013 62.67012467 -51 73 C-51.66 73 -52.32 73 -53 73 C-49.30953693 62.19770707 -39.33266301 55.60146869 -30.0703125 49.7890625 C-26.6481699 47.66567895 -26.6481699 47.66567895 -25 44 C-26.03447266 43.67128906 -26.03447266 43.67128906 -27.08984375 43.3359375 C-37.75881233 39.73570942 -46.90052082 34.63993847 -52.375 24.4375 C-53.12831919 21.49955518 -53.268448 19.02003999 -53 16 C-51 14 -51 14 -48.0625 13.5625 C-45 14 -45 14 -43.375 16.125 C-42.92125 17.07375 -42.4675 18.0225 -42 19 C-37.43919636 26.54891636 -32.92668991 30.38054922 -24.44140625 32.54296875 C-20.74561062 33.23482169 -18.60443857 33.22293451 -15 32 C-10.29303749 28.75854882 -5.975905 25.10499283 -2 21 C-2.66 20.34 -3.32 19.68 -4 19 C-3.360625 18.87625 -2.72125 18.7525 -2.0625 18.625 C-1.381875 18.41875 -0.70125 18.2125 0 18 C1.35119149 15.29761702 1.13237128 13.13985554 1.125 10.125 C1.12757813 9.07570313 1.13015625 8.02640625 1.1328125 6.9453125 C1.01998664 4.44323315 0.72508762 2.38243077 0 0 Z " fill="#A9A765" transform="translate(191,37)"/>
<path d="M0 0 C0.81645996 0.00483398 1.63291992 0.00966797 2.47412109 0.01464844 C22.45007399 0.21325604 22.45007399 0.21325604 29.0703125 6.65234375 C34.37625889 12.8527211 34.01183742 18.20600598 33.5 26.125 C32.17704495 30.48296959 30.50661325 32.26492145 26.87890625 34.78125 C26.24670166 35.22275391 25.61449707 35.66425781 24.96313477 36.11914062 C24.48030029 36.45107422 23.99746582 36.78300781 23.5 37.125 C23.91886475 37.67961914 24.33772949 38.23423828 24.76928711 38.80566406 C26.66531307 41.32386879 28.55147252 43.84929945 30.4375 46.375 C31.09685547 47.24769531 31.75621094 48.12039062 32.43554688 49.01953125 C33.06396484 49.86386719 33.69238281 50.70820313 34.33984375 51.578125 C34.92113037 52.35317383 35.50241699 53.12822266 36.10131836 53.92675781 C37.45088434 56.04780723 38.06688427 57.66823053 38.5 60.125 C33.48725296 61.02729447 28.38647021 61.89106079 23.5 60.125 C18.36021241 55.70855664 15.47557214 49.07614427 12.5 43.125 C11.015 42.63 11.015 42.63 9.5 42.125 C9.5 41.465 9.5 40.805 9.5 40.125 C6.035 39.63 6.035 39.63 2.5 39.125 C2.50523682 39.72562256 2.51047363 40.32624512 2.51586914 40.94506836 C2.53658014 43.65086838 2.54964125 46.35665177 2.5625 49.0625 C2.57087891 50.00802734 2.57925781 50.95355469 2.58789062 51.92773438 C2.59111328 52.82685547 2.59433594 53.72597656 2.59765625 54.65234375 C2.60289307 55.48499756 2.60812988 56.31765137 2.61352539 57.17553711 C2.5 59.125 2.5 59.125 1.5 60.125 C-2.46 60.125 -6.42 60.125 -10.5 60.125 C-10.5 40.655 -10.5 21.185 -10.5 1.125 C-7.22077568 -0.51461216 -3.60099033 -0.02169707 0 0 Z M2.5 13.125 C2.5 17.745 2.5 22.365 2.5 27.125 C10.16152341 27.84928977 10.16152341 27.84928977 17.51171875 26.1875 C19.11980354 24.83855177 19.11980354 24.83855177 20.5 22.125 C20.41498029 18.55417202 19.50413395 17.13120093 17.5 14.125 C14.3069669 12.88875931 11.1402154 13.02214029 7.75 13.0625 C5.15125 13.0934375 5.15125 13.0934375 2.5 13.125 Z " fill="#5A5D37" transform="translate(590.5,149.875)"/>
<path d="M0 0 C2.10353495 -0.0810206 4.20795952 -0.13919907 6.3125 -0.1875 C7.48425781 -0.22230469 8.65601563 -0.25710937 9.86328125 -0.29296875 C13 0 13 0 14.7578125 1.06640625 C16.57705596 3.89824748 17.53633539 6.94567563 18.5625 10.125 C21.87655574 19.95292694 25.74929795 29.53828659 29.6328125 39.15234375 C30.02758789 40.13315918 30.42236328 41.11397461 30.82910156 42.12451172 C31.60219577 44.02307378 32.39036099 45.91557686 33.19433594 47.80126953 C33.74395996 49.10813721 33.74395996 49.10813721 34.3046875 50.44140625 C34.63194824 51.20267822 34.95920898 51.9639502 35.29638672 52.74829102 C36.08421755 55.26951369 36.12561801 57.37388891 36 60 C26.01527615 61.58378378 26.01527615 61.58378378 22.5 59.5625 C21 57 21 57 18 49 C7.11 48.505 7.11 48.505 -4 48 C-4.99 51.3 -5.98 54.6 -7 58 C-9.85793316 60.85793316 -12.14665584 60.40799941 -16.125 60.625 C-17.40632813 60.69976562 -18.68765625 60.77453125 -20.0078125 60.8515625 C-20.99523437 60.90054688 -21.98265625 60.94953125 -23 61 C-20.8592148 53.28755444 -18.15199277 45.82014866 -15.29370117 38.34985352 C-14.5629661 36.43871902 -13.83872614 34.52521481 -13.11523438 32.61132812 C-10.8511284 26.64891846 -8.51348076 20.74697749 -5.86889648 14.94213867 C-4.54451644 11.98191298 -3.3991888 8.97008155 -2.25 5.9375 C-1.82203125 4.81214844 -1.3940625 3.68679687 -0.953125 2.52734375 C-0.63859375 1.69332031 -0.3240625 0.85929688 0 0 Z M7 20 C6.18618205 21.93694678 5.37399084 23.87457711 4.5625 25.8125 C4.11003906 26.89144531 3.65757812 27.97039062 3.19140625 29.08203125 C2.39624987 31.0295126 1.66520352 33.00438943 1 35 C4.96 35 8.92 35 13 35 C10.8092006 27.39230548 10.8092006 27.39230548 8 20 C7.67 20 7.34 20 7 20 Z " fill="#5B5D37" transform="translate(388,150)"/>
<path d="M0 0 C0.76691666 -0.00095673 1.53383331 -0.00191345 2.32398987 -0.00289917 C3.94719525 -0.00358012 5.57040335 -0.00173176 7.19360352 0.00244141 C9.6779595 0.00778359 12.16213409 0.00249735 14.64648438 -0.00390625 C16.22265665 -0.00324531 17.79882881 -0.00196382 19.375 0 C20.11882431 -0.00202423 20.86264862 -0.00404846 21.62901306 -0.00613403 C24.7737146 0.00814835 27.24772666 0.13075264 30.25390625 1.1328125 C30.44964233 2.56921421 30.63518441 4.00700754 30.81640625 5.4453125 C30.97302734 6.64607422 30.97302734 6.64607422 31.1328125 7.87109375 C31.25390625 10.1328125 31.25390625 10.1328125 30.25390625 13.1328125 C21.34390625 13.1328125 12.43390625 13.1328125 3.25390625 13.1328125 C3.25390625 17.0928125 3.25390625 21.0528125 3.25390625 25.1328125 C10.51390625 25.1328125 17.77390625 25.1328125 25.25390625 25.1328125 C25.74890625 30.0828125 25.74890625 30.0828125 26.25390625 35.1328125 C19.20278186 37.34492996 12.60732804 37.33458322 5.25390625 37.1328125 C4.09615565 40.60606431 4.18523973 43.49348698 4.25390625 47.1328125 C5.42747681 47.17039673 5.42747681 47.17039673 6.62475586 47.20874023 C10.14715574 47.32431038 13.66926185 47.44721199 17.19140625 47.5703125 C18.42310547 47.60962891 19.65480469 47.64894531 20.92382812 47.68945312 C22.67856445 47.75229492 22.67856445 47.75229492 24.46875 47.81640625 C26.09478149 47.87139282 26.09478149 47.87139282 27.75366211 47.92749023 C30.25390625 48.1328125 30.25390625 48.1328125 31.25390625 49.1328125 C31.25390625 52.7628125 31.25390625 56.3928125 31.25390625 60.1328125 C17.72390625 60.1328125 4.19390625 60.1328125 -9.74609375 60.1328125 C-9.74609375 40.6628125 -9.74609375 21.1928125 -9.74609375 1.1328125 C-6.65387007 -0.41329934 -3.3925459 -0.00920736 0 0 Z " fill="#62633C" transform="translate(538.74609375,149.8671875)"/>
<path d="M0 0 C0.85736252 -0.00307663 1.71472504 -0.00615326 2.59806824 -0.00932312 C3.97325371 0.00145515 3.97325371 0.00145515 5.3762207 0.01245117 C6.32261917 0.01290939 7.26901764 0.01336761 8.24409485 0.01383972 C10.24037941 0.01685667 12.23666172 0.0247263 14.23291016 0.03710938 C17.30094663 0.05541363 20.3686821 0.05761867 23.43676758 0.05737305 C25.37492125 0.06228655 27.31307286 0.06811414 29.2512207 0.07495117 C30.63551521 0.07662041 30.63551521 0.07662041 32.04777527 0.07832336 C38.49844179 0.12685976 38.49844179 0.12685976 39.61450195 1.24291992 C39.75805312 5.24512645 39.65666599 9.23733675 39.61450195 13.24291992 C34.00450195 13.24291992 28.39450195 13.24291992 22.61450195 13.24291992 C22.61450195 28.75291992 22.61450195 44.26291992 22.61450195 60.24291992 C18.32450195 60.24291992 14.03450195 60.24291992 9.61450195 60.24291992 C9.61450195 44.73291992 9.61450195 29.22291992 9.61450195 13.24291992 C1.19950195 13.73791992 1.19950195 13.73791992 -7.38549805 14.24291992 C-7.71549805 10.28291992 -8.04549805 6.32291992 -8.38549805 2.24291992 C-4.76005696 0.43019938 -3.74535887 -0.00709743 0 0 Z " fill="#5D5F39" transform="translate(429.385498046875,149.757080078125)"/>
<path d="M0 0 C0.85758911 -0.00315216 1.71517822 -0.00630432 2.59875488 -0.009552 C3.53102905 -0.00752777 4.46330322 -0.00550354 5.42382812 -0.00341797 C6.84979309 -0.00485306 6.84979309 -0.00485306 8.30456543 -0.00631714 C10.31876695 -0.00699904 12.33297065 -0.00514409 14.34716797 -0.00097656 C17.44178167 0.00437155 20.53625022 -0.00092124 23.63085938 -0.00732422 C25.58268261 -0.00666344 27.53450576 -0.00538228 29.48632812 -0.00341797 C30.88473938 -0.00645432 30.88473938 -0.00645432 32.31140137 -0.009552 C33.16899048 -0.00639984 34.02657959 -0.00324768 34.91015625 0 C35.66880981 0.00079559 36.42746338 0.00159119 37.20910645 0.00241089 C38.95507812 0.12939453 38.95507812 0.12939453 39.95507812 1.12939453 C40.09862929 5.13160106 39.99724216 9.12381136 39.95507812 13.12939453 C35.00507812 13.12939453 30.05507813 13.12939453 24.95507812 13.12939453 C24.95507812 28.63939453 24.95507812 44.14939453 24.95507812 60.12939453 C13.95507812 61.12939453 13.95507812 61.12939453 11.95507812 60.12939453 C11.95507812 44.61939453 11.95507812 29.10939453 11.95507812 13.12939453 C6.34507812 13.12939453 0.73507812 13.12939453 -5.04492188 13.12939453 C-5.14257812 3.85205078 -5.14257812 3.85205078 -5.04492188 1.12939453 C-3.51407763 -0.40144971 -2.13289044 0.00223674 0 0 Z " fill="#5B5C38" transform="translate(479.044921875,149.87060546875)"/>
<path d="M0 0 C3.0625 0.4375 3.0625 0.4375 4.6875 2.5625 C5.14125 3.51125 5.595 4.46 6.0625 5.4375 C10.6887756 13.09478374 15.55654441 16.7730703 23.9375 19.25 C24.62585938 19.46591797 25.31421875 19.68183594 26.0234375 19.90429688 C27.69923371 20.42798319 29.38035813 20.93456954 31.0625 21.4375 C31.6875 24.3125 31.6875 24.3125 32.0625 27.4375 C29.60696554 29.89303446 28.71855934 29.84380497 25.3125 30 C16.68791289 29.81866834 8.85612667 25.78615993 2.46484375 20.14453125 C-1.73276893 15.59648267 -4.69201927 11.56737931 -5.1875 5.25 C-4.83402244 1.27337747 -3.91101253 0.58249123 0 0 Z " fill="#5E633E" transform="translate(142.9375,50.5625)"/>
<path d="M0 0 C17.16 0 34.32 0 52 0 C52 0.33 52 0.66 52 1 C35.5 1 19 1 2 1 C2 26.08 2 51.16 2 77 C18.17 77 34.34 77 51 77 C51 73.7 51 70.4 51 67 C51.66 66.67 52.32 66.34 53 66 C53.02696365 67.79158489 53.04637917 69.58328473 53.0625 71.375 C53.07410156 72.37273437 53.08570313 73.37046875 53.09765625 74.3984375 C53 77 53 77 52 79 C34.84 79 17.68 79 0 79 C0 52.93 0 26.86 0 0 Z " fill="#3D2B1A" transform="translate(453,50)"/>
<path d="M0 0 C0.33 0 0.66 0 1 0 C1.02685938 2.14576637 1.04633088 4.29162645 1.0625 6.4375 C1.07410156 7.63246094 1.08570313 8.82742187 1.09765625 10.05859375 C1 13 1 13 0 14 C-2.6662603 14.08855161 -5.30647114 14.11524673 -7.97265625 14.09765625 C-8.77029892 14.0962413 -9.56794159 14.09482635 -10.38975525 14.09336853 C-12.94737435 14.08775316 -15.50490718 14.07519812 -18.0625 14.0625 C-19.79231645 14.05748698 -21.52213426 14.05292373 -23.25195312 14.04882812 C-27.50136239 14.03862791 -31.75058416 14.01905568 -36 14 C-36 19.61 -36 25.22 -36 31 C-25.11 31 -14.22 31 -3 31 C-3 35.29 -3 39.58 -3 44 C-4 45 -4 45 -7.05102539 45.11352539 C-8.39991271 45.11336634 -9.74880614 45.10767612 -11.09765625 45.09765625 C-12.16094398 45.09553383 -12.16094398 45.09553383 -13.24571228 45.09336853 C-15.51801712 45.08775443 -17.79022475 45.07519963 -20.0625 45.0625 C-21.59960796 45.05748681 -23.13671745 45.05292359 -24.67382812 45.04882812 C-28.44925642 45.03778042 -32.22461171 45.02050641 -36 45 C-36 46.65 -36 48.3 -36 50 C-36.33 50 -36.66 50 -37 50 C-37 48.02 -37 46.04 -37 44 C-34.0780231 42.53901155 -31.50106525 42.88865099 -28.2421875 42.90234375 C-27.24761032 42.90446617 -27.24761032 42.90446617 -26.23294067 42.90663147 C-24.11358137 42.91223246 -21.99432741 42.924785 -19.875 42.9375 C-18.43880361 42.94251488 -17.00260556 42.94707781 -15.56640625 42.95117188 C-12.04423655 42.96220218 -8.52212855 42.97946741 -5 43 C-5 39.37 -5 35.74 -5 32 C-15.56 32 -26.12 32 -37 32 C-37 25.4 -37 18.8 -37 12 C-24.79 12 -12.58 12 0 12 C0 8.04 0 4.08 0 0 Z " fill="#342515" transform="translate(505,52)"/>
<path d="M0 0 C14.02785926 2.13984294 27.7810517 11.22208866 37.37109375 21.5546875 C39 24 39 24 39 28 C35.19064419 26.63951578 32.24081107 24.91084726 29 22.5 C28.04222656 21.78972656 27.08445312 21.07945312 26.09765625 20.34765625 C22.31084924 17.47770541 18.54833412 14.57737604 14.79614258 11.66235352 C10.5447463 8.37459854 6.18271953 5.28562131 1.73046875 2.27734375 C1.15941406 1.85582031 0.58835938 1.43429688 0 1 C0 0.67 0 0.34 0 0 Z " fill="#B78E35" transform="translate(63,191)"/>
<path d="M0 0 C0.33 0.99 0.66 1.98 1 3 C0.5361792 3.73694092 0.0723584 4.47388184 -0.40551758 5.2331543 C-2.42842688 8.74343314 -2.4286812 11.23390649 -2.51171875 15.26953125 C-2.52966995 15.95053391 -2.54762115 16.63153656 -2.56611633 17.33317566 C-2.61998631 19.4928888 -2.65403782 21.65238399 -2.6875 23.8125 C-2.72069391 25.28323331 -2.75518549 26.75393793 -2.79101562 28.22460938 C-2.87569716 31.81619687 -2.94261961 35.40786076 -3 39 C-5.64590014 39.02684679 -8.29153096 39.04676357 -10.9375 39.0625 C-11.69224609 39.07087891 -12.44699219 39.07925781 -13.22460938 39.08789062 C-15.14994313 39.09652441 -17.07535581 39.05224333 -19 39 C-20.9230889 37.0769111 -20.25321838 33.52929515 -20.31640625 30.90234375 C-20.33718735 30.19348526 -20.35796844 29.48462677 -20.37937927 28.75428772 C-20.44494598 26.48212695 -20.5037923 24.20984736 -20.5625 21.9375 C-20.60567849 20.40037817 -20.64929255 18.8632685 -20.69335938 17.32617188 C-20.80063449 13.5509041 -20.90188137 9.7755164 -21 6 C-20.34 6 -19.68 6 -19 6 C-17.56490779 8.87018441 -17.88841494 11.33543723 -17.90234375 14.5390625 C-17.90556641 15.84101562 -17.90878906 17.14296875 -17.91210938 18.484375 C-17.92046534 19.86458399 -17.92893029 21.24479232 -17.9375 22.625 C-17.94251499 24.01301926 -17.9470779 25.40104022 -17.95117188 26.7890625 C-17.96299015 30.19272673 -17.9809261 33.5963687 -18 37 C-13.71 37 -9.42 37 -5 37 C-5.05800781 34.999375 -5.11601563 32.99875 -5.17578125 30.9375 C-5.21058083 28.97480391 -5.24519052 27.01209979 -5.2746582 25.04931641 C-5.31182827 23.03637747 -5.3753997 21.02398163 -5.43945312 19.01171875 C-5.53969476 11.03248488 -5.08039671 6.2724898 0 0 Z " fill="#47331E" transform="translate(563,90)"/>
<path d="M0 0 C8.91 0 17.82 0 27 0 C27 0.33 27 0.66 27 1 C18.42 1 9.84 1 1 1 C1 4.96 1 8.92 1 13 C8.26 13 15.52 13 23 13 C23.33 16.3 23.66 19.6 24 23 C16.44632067 25.62066426 8.83311924 25.22485093 1 24 C0.67 23.34 0.34 22.68 0 22 C6.93 22 13.86 22 21 22 C21 19.69 21 17.38 21 15 C14.07 15 7.14 15 0 15 C0 10.05 0 5.1 0 0 Z " fill="#222417" transform="translate(541,162)"/>
<path d="M0 0 C5.0296477 -0.90533659 10.08326717 -1.69992089 15 0 C19.1203027 3.3788011 21.48666192 8.3715854 23.92871094 13.015625 C25.48897663 15.9057434 27.30166788 18.58113396 29.125 21.3125 C32 25.74423963 32 25.74423963 32 28 C37.28 28 42.56 28 48 28 C45.525 24.04 45.525 24.04 43 20 C46.7602899 21.88014495 47.9686299 22.54667082 50 26 C50 27.32 50 28.64 50 30 C47.60471406 30.25007388 45.21120675 30.47552126 42.8125 30.6875 C42.13896484 30.76033203 41.46542969 30.83316406 40.77148438 30.90820312 C37.65353541 31.16676475 35.26597849 31.09940218 32.32421875 30 C29.07992073 27.20826792 27.15493241 23.97925218 25 20.3125 C24.5875 19.62994141 24.175 18.94738281 23.75 18.24414062 C22.91789791 16.8672717 22.09104725 15.48721517 21.26953125 14.10400391 C19.54625239 11.24800059 17.73624443 8.44937437 15.91796875 5.65307617 C15 4 15 4 15 2 C10.38 2 5.76 2 1 2 C0.67 1.34 0.34 0.68 0 0 Z " fill="#352A19" transform="translate(393,99)"/>
<path d="M0 0 C2.66752056 2.16608127 5.23637657 4.38032944 7.7421875 6.73046875 C7.4121875 7.39046875 7.0821875 8.05046875 6.7421875 8.73046875 C6.1853125 8.2715625 5.6284375 7.81265625 5.0546875 7.33984375 C-6.81382 -2.20307782 -17.11265564 -4.6504132 -32.2578125 -3.26953125 C-35.88834021 -2.35321385 -38.98744302 -1.06889116 -42.2578125 0.73046875 C-43.59022247 1.39897895 -44.92328443 2.06619693 -46.2578125 2.73046875 C-45.2578125 -0.26953125 -45.2578125 -0.26953125 -43.1484375 -1.62109375 C-42.27703125 -2.04132812 -41.405625 -2.4615625 -40.5078125 -2.89453125 C-39.21617187 -3.53261719 -39.21617187 -3.53261719 -37.8984375 -4.18359375 C-26.02986776 -9.06445527 -10.44277334 -7.27488167 0 0 Z " fill="#4C361F" transform="translate(353.2578125,55.26953125)"/>
<path d="M0 0 C1.22763565 0.00212242 1.22763565 0.00212242 2.48007202 0.00428772 C5.09873075 0.00989335 7.71730454 0.02244677 10.3359375 0.03515625 C12.10937377 0.04017053 13.88281137 0.04473356 15.65625 0.04882812 C20.00784532 0.05986461 24.359377 0.077133 28.7109375 0.09765625 C28.3809375 0.75765625 28.0509375 1.41765625 27.7109375 2.09765625 C16.1609375 2.09765625 4.6109375 2.09765625 -7.2890625 2.09765625 C-7.2890625 5.39765625 -7.2890625 8.69765625 -7.2890625 12.09765625 C-7.9490625 12.09765625 -8.6090625 12.09765625 -9.2890625 12.09765625 C-9.6190625 8.46765625 -9.9490625 4.83765625 -10.2890625 1.09765625 C-7.06302705 -0.51536148 -3.54196212 -0.02287974 0 0 Z " fill="#624226" transform="translate(340.2890625,85.90234375)"/>
<path d="M0 0 C0.33 0 0.66 0 1 0 C1 2.31 1 4.62 1 7 C1.81267334 6.99476318 2.62534668 6.98952637 3.46264648 6.98413086 C7.12092322 6.96343006 10.77918767 6.95036197 14.4375 6.9375 C15.71689453 6.92912109 16.99628906 6.92074219 18.31445312 6.91210938 C20.13686523 6.90727539 20.13686523 6.90727539 21.99609375 6.90234375 C23.12200928 6.89710693 24.2479248 6.89187012 25.40795898 6.88647461 C28 7 28 7 29 8 C29.07205511 9.68608966 29.08386068 11.37500659 29.0625 13.0625 C29.05347656 13.98160156 29.04445313 14.90070313 29.03515625 15.84765625 C29.02355469 16.55792969 29.01195312 17.26820313 29 18 C28.34 17.67 27.68 17.34 27 17 C27 14.36 27 11.72 27 9 C18.09 9 9.18 9 0 9 C0 6.03 0 3.06 0 0 Z " fill="#242614" transform="translate(541,191)"/>
<path d="M0 0 C0.66 0 1.32 0 2 0 C1.67 1.65 1.34 3.3 1 5 C-9.56 5 -20.12 5 -31 5 C-31 6.65 -31 8.3 -31 10 C-31.33 10 -31.66 10 -32 10 C-32 8.02 -32 6.04 -32 4 C-29.0780231 2.53901155 -26.50106525 2.88865099 -23.2421875 2.90234375 C-22.24761032 2.90446617 -22.24761032 2.90446617 -21.23294067 2.90663147 C-19.11358137 2.91223246 -16.99432741 2.924785 -14.875 2.9375 C-13.43880361 2.94251488 -12.00260556 2.94707781 -10.56640625 2.95117188 C-7.04423655 2.96220218 -3.52212855 2.97946741 0 3 C0 2.01 0 1.02 0 0 Z " fill="#51381F" transform="translate(500,92)"/>
<path d="M0 0 C4.25586141 3.71316767 6.178834 7.17490719 7.75 12.5 C7.95753906 13.15097656 8.16507813 13.80195313 8.37890625 14.47265625 C9.46778345 17.95003827 10.36523427 21.41219372 11 25 C11.99 24.34 12.98 23.68 14 23 C13.43454163 26.95820859 12.19097652 29.6659053 10 33 C9.34202178 30.42018302 8.75593478 27.84906501 8.203125 25.2421875 C6.55241433 17.5888129 4.86763272 10.65912613 0.953125 3.78515625 C0 2 0 2 0 0 Z " fill="#50401F" transform="translate(113,210)"/>
<path d="M0 0 C-2.28295941 2.28295941 -3.29770494 2.41791926 -6.375 3.125 C-16.35672581 6.00378759 -24.61777756 12.12405423 -30 21 C-30.33 20.01 -30.66 19.02 -31 18 C-25.35642171 8.31326114 -11.34392807 -0.83004352 0 0 Z " fill="#423F21" transform="translate(98,23)"/>
<path d="M0 0 C3.3125 2.125 3.3125 2.125 4.3125 4.125 C2.9925 4.125 1.6725 4.125 0.3125 4.125 C0.3125 3.465 0.3125 2.805 0.3125 2.125 C-5.98531129 0.2231857 -14.18824559 -0.38448229 -20.27734375 2.2421875 C-22.36140513 3.57054569 -22.36140513 3.57054569 -24.13671875 5.03125 C-25.6875 6.125 -25.6875 6.125 -28.6875 6.125 C-27.63262267 5.15828244 -26.56816719 4.20201255 -25.5 3.25 C-24.90832031 2.71632813 -24.31664062 2.18265625 -23.70703125 1.6328125 C-16.99317794 -3.37985168 -7.44178488 -3.59999702 0 0 Z " fill="#654322" transform="translate(340.6875,65.875)"/>
<path d="M0 0 C5.2173399 -0.73368842 9.80685949 -1.05854126 15 0 C18.72469479 3.48895462 20.97780079 7.33537435 23 12 C23 12.66 23 13.32 23 14 C22.34 14 21.68 14 21 14 C19.4921875 11.8828125 19.4921875 11.8828125 17.875 9.125 C17.33617187 8.22007813 16.79734375 7.31515625 16.2421875 6.3828125 C15 4 15 4 15 2 C10.38 2 5.76 2 1 2 C0.67 1.34 0.34 0.68 0 0 Z " fill="#644626" transform="translate(393,99)"/>
<path d="M0 0 C0.33 0.66 0.66 1.32 1 2 C-0.32 2.99 -1.64 3.98 -3 5 C-2.608125 5.495 -2.21625 5.99 -1.8125 6.5 C0.22540756 9.31090698 2.01857227 12.22692618 3.81640625 15.1953125 C5.00418197 17.13984481 5.00418197 17.13984481 7 19 C7.625 21.625 7.625 21.625 8 24 C1.63538539 18.40685383 -3.08369093 10.9300621 -6 3 C-4.02 2.01 -2.04 1.02 0 0 Z " fill="#54351F" transform="translate(428,94)"/>
<path d="M0 0 C0.66 0.33 1.32 0.66 2 1 C-0.5858798 6.50904826 -3.53532384 11.76168146 -6.625 17 C-7.02130615 17.68328369 -7.4176123 18.36656738 -7.82592773 19.07055664 C-8.82691358 20.74906102 -9.90719325 22.37977686 -11 24 C-11.66 24 -12.32 24 -13 24 C-11.89407668 20.95871087 -10.58262406 18.21327296 -8.9375 15.4375 C-6.96970775 12.30128184 -6.96970775 12.30128184 -6.4375 9.75 C-5.86238791 7.44955163 -4.69702241 6.63175232 -3 5 C-1.96642853 3.35394174 -0.95939668 1.69036558 0 0 Z " fill="#513A1D" transform="translate(577,65)"/>
<path d="M0 0 C1.08152344 -0.02578125 2.16304688 -0.0515625 3.27734375 -0.078125 C4.19644531 0.03015625 5.11554688 0.1384375 6.0625 0.25 C6.7225 1.24 7.3825 2.23 8.0625 3.25 C7.0725 3.745 7.0725 3.745 6.0625 4.25 C6.0625 3.59 6.0625 2.93 6.0625 2.25 C2.7625 2.58 -0.5375 2.91 -3.9375 3.25 C-3.9375 8.2 -3.9375 13.15 -3.9375 18.25 C-4.2675 18.25 -4.5975 18.25 -4.9375 18.25 C-4.9375 12.97 -4.9375 7.69 -4.9375 2.25 C-5.5975 1.92 -6.2575 1.59 -6.9375 1.25 C-5.12630181 -0.56119819 -2.43968608 0.03481122 0 0 Z " fill="#69693C" transform="translate(302.9375,149.75)"/>
<path d="M0 0 C3.77545388 1.09068668 6.47043472 1.9083091 9 5 C7.35 4.67 5.7 4.34 4 4 C4.03480469 4.56847656 4.06960937 5.13695312 4.10546875 5.72265625 C4.30177282 11.32199626 3.67863939 15.05481958 1 20 C0.34 20.33 -0.32 20.66 -1 21 C-1.99 20.34 -2.98 19.68 -4 19 C-3.360625 18.87625 -2.72125 18.7525 -2.0625 18.625 C-1.381875 18.41875 -0.70125 18.2125 0 18 C1.35119149 15.29761702 1.13237128 13.13985554 1.125 10.125 C1.12886719 8.55105469 1.12886719 8.55105469 1.1328125 6.9453125 C1.01998664 4.44323315 0.72508762 2.38243077 0 0 Z " fill="#B3AD63" transform="translate(191,37)"/>
<path d="M0 0 C6.6 0 13.2 0 20 0 C24.00390625 7.51953125 24.00390625 7.51953125 25 10 C24.67 10.99 24.34 11.98 24 13 C22.02 9.37 20.04 5.74 18 2 C12.06 2 6.12 2 0 2 C0 1.34 0 0.68 0 0 Z " fill="#51351B" transform="translate(516,50)"/>
<path d="M0 0 C0.66 0.33 1.32 0.66 2 1 C1.36191406 1.54269531 0.72382813 2.08539063 0.06640625 2.64453125 C-0.75988281 3.35996094 -1.58617187 4.07539063 -2.4375 4.8125 C-3.26121094 5.52019531 -4.08492187 6.22789062 -4.93359375 6.95703125 C-7.22164759 8.91109686 -7.22164759 8.91109686 -8 12 C-8 12.99 -8 13.98 -8 15 C-9.65 15.66 -11.3 16.32 -13 17 C-12.51776551 12.36888598 -10.76628826 10.17235686 -7.625 6.8125 C-6.83351562 5.95269531 -6.04203125 5.09289062 -5.2265625 4.20703125 C-3 2 -3 2 0 0 Z " fill="#3F4120" transform="translate(178,210)"/>
<path d="M0 0 C0.33 0 0.66 0 1 0 C1.05865035 3.18742115 1.09381259 6.37470118 1.125 9.5625 C1.15013672 10.90538086 1.15013672 10.90538086 1.17578125 12.27539062 C1.21479596 17.60089905 0.75475782 21.96370689 -1 27 C-1.33 27 -1.66 27 -2 27 C-2.28994872 17.86661545 -1.1741788 9.03698325 0 0 Z " fill="#424126" transform="translate(133,192)"/>
<path d="M0 0 C6.6 0.33 13.2 0.66 20 1 C20 1.66 20 2.32 20 3 C13.35554131 4.07168689 7.45767099 4.19099551 1 2 C0.67 1.34 0.34 0.68 0 0 Z " fill="#6C4E2E" transform="translate(317,127)"/>
<path d="M0 0 C0.33 0.66 0.66 1.32 1 2 C3.58605332 2.4683265 3.58605332 2.4683265 6.5625 2.625 C8.08037109 2.73714844 8.08037109 2.73714844 9.62890625 2.8515625 C10.80259766 2.92503906 10.80259766 2.92503906 12 3 C12.33 2.01 12.66 1.02 13 0 C13.33 1.65 13.66 3.3 14 5 C8.72 5 3.44 5 -2 5 C-1 1 -1 1 0 0 Z " fill="#2D3018" transform="translate(389,182)"/>
<path d="M0 0 C-2.43536322 1.48278572 -4.87312937 2.96133357 -7.3125 4.4375 C-8.00279297 4.85837891 -8.69308594 5.27925781 -9.40429688 5.71289062 C-10.07138672 6.11572266 -10.73847656 6.51855469 -11.42578125 6.93359375 C-12.03848877 7.30540771 -12.65119629 7.67722168 -13.2824707 8.06030273 C-15 9 -15 9 -18 10 C-18 10.66 -18 11.32 -18 12 C-18.99 11.67 -19.98 11.34 -21 11 C-5.19263239 -2.59631619 -5.19263239 -2.59631619 0 0 Z " fill="#483D21" transform="translate(175,179)"/>
<path d="M0 0 C14.88888889 12.71759259 14.88888889 12.71759259 19 17 C14.03231242 15.44759763 9.82132943 12.48945219 6 9 C6 8.34 6 7.68 6 7 C5.34 7 4.68 7 4 7 C0 2.52941176 0 2.52941176 0 0 Z " fill="#5D4824" transform="translate(46,207)"/>
<path d="M0 0 C0.66 0.33 1.32 0.66 2 1 C1.71125 1.680625 1.4225 2.36125 1.125 3.0625 C-0.07887598 6.07115689 -0.07887598 6.07115689 -1 9.5625 C-1.79450773 12.29362034 -2.62075715 14.53706635 -4 17 C-4.66 17 -5.32 17 -6 17 C-4.33846988 11.14340094 -2.52958084 5.5409866 0 0 Z " fill="#424426" transform="translate(378,176)"/>
<path d="M0 0 C3.7602899 1.88014495 4.9686299 2.54667082 7 6 C7 7.32 7 8.64 7 10 C1.39 9.67 -4.22 9.34 -10 9 C-10 8.67 -10 8.34 -10 8 C-5.05 8 -0.1 8 5 8 C2.525 4.04 2.525 4.04 0 0 Z " fill="#64452A" transform="translate(436,119)"/>
<path d="M0 0 C0.66 0.33 1.32 0.66 2 1 C2 4.96 2 8.92 2 13 C1.01 12.67 0.02 12.34 -1 12 C-1.02712066 10.56260487 -1.04645067 9.12506137 -1.0625 7.6875 C-1.07410156 6.88699219 -1.08570313 6.08648437 -1.09765625 5.26171875 C-1 3 -1 3 0 0 Z " fill="#56562C" transform="translate(467,150)"/>
<path d="M0 0 C4.63288815 1.29068732 7.69753944 3.0438844 11.375 6.125 C12.24898438 6.84945312 13.12296875 7.57390625 14.0234375 8.3203125 C15.00183594 9.15175781 15.00183594 9.15175781 16 10 C15.67 10.66 15.34 11.32 15 12 C14.41992188 11.54109375 13.83984375 11.0821875 13.2421875 10.609375 C7.9600722 6.4512649 7.9600722 6.4512649 2.4375 2.625 C1.633125 2.08875 0.82875 1.5525 0 1 C0 0.67 0 0.34 0 0 Z " fill="#60452B" transform="translate(345,52)"/>
<path d="M0 0 C0.66 0 1.32 0 2 0 C1.52417032 2.29236186 1.04423615 4.58387209 0.5625 6.875 C0.16224609 8.78925781 0.16224609 8.78925781 -0.24609375 10.7421875 C-1 14 -1 14 -2 16 C-2.66 16 -3.32 16 -4 16 C-2.68 10.72 -1.36 5.44 0 0 Z " fill="#464822" transform="translate(143,209)"/>
<path d="M0 0 C3.125 -0.1875 3.125 -0.1875 6 0 C4.33333333 1.66666667 2.66666667 3.33333333 1 5 C0.443125 5.598125 -0.11375 6.19625 -0.6875 6.8125 C-2 8 -2 8 -4 8 C-2.87548273 5.0280615 -1.77706209 2.66559313 0 0 Z " fill="#BCB45F" transform="translate(142,102)"/>
<path d="M0 0 C0.33 0 0.66 0 1 0 C0.89300781 0.81984375 0.78601563 1.6396875 0.67578125 2.484375 C0.49595703 4.10085937 0.49595703 4.10085937 0.3125 5.75 C0.18488281 6.81734375 0.05726563 7.8846875 -0.07421875 8.984375 C0.00998186 12.40557866 0.69074515 13.55420823 3 16 C2.34 16.33 1.68 16.66 1 17 C-3.08168897 12.31806265 -3.08168897 12.31806265 -2.85546875 8.66796875 C-2.16873136 5.60976412 -1.40387824 2.80775649 0 0 Z " fill="#424525" transform="translate(247,102)"/>
<path d="M0 0 C0.33 0.66 0.66 1.32 1 2 C-2.85270362 7.3345127 -6.2141641 11.75428718 -12 15 C-10.54189378 11.60534645 -8.66233272 9.47748287 -6 6.9375 C-3.62557202 4.66346144 -1.83652048 2.75478071 0 0 Z " fill="#383A1B" transform="translate(113,248)"/>
<path d="M0 0 C6.41923331 0.29112169 10.62100206 1.45215029 16 5 C15.67 5.66 15.34 6.32 15 7 C13.24956851 6.20928784 11.49967222 5.41739082 9.75 4.625 C8.77546875 4.18414063 7.8009375 3.74328125 6.796875 3.2890625 C4.50688161 2.23361862 2.24633399 1.14456065 0 0 Z " fill="#464122" transform="translate(159,11)"/>
<path d="M0 0 C0.33 0.66 0.66 1.32 1 2 C0.109375 3.8046875 0.109375 3.8046875 -1.25 5.875 C-1.71535156 6.58398438 -2.18070313 7.29296875 -2.66015625 8.0234375 C-3.10230469 8.67570313 -3.54445312 9.32796875 -4 10 C-4.8353125 11.2375 -4.8353125 11.2375 -5.6875 12.5 C-6.120625 12.995 -6.55375 13.49 -7 14 C-7.66 14 -8.32 14 -9 14 C-7.45158425 10.65291949 -5.50894136 7.75332488 -3.375 4.75 C-2.74335938 3.85796875 -2.11171875 2.9659375 -1.4609375 2.046875 C-0.73777344 1.03367188 -0.73777344 1.03367188 0 0 Z " fill="#45471F" transform="translate(134,238)"/>
<path d="M0 0 C0.33 0 0.66 0 1 0 C2.93012632 6.41395823 3.09029246 10.61299527 1 17 C0.67 17 0.34 17 0 17 C0 11.39 0 5.78 0 0 Z " fill="#83633C" transform="translate(467,97)"/>
<path d="M0 0 C1 3 1 3 0.328125 4.97265625 C-0.02765625 5.66230469 -0.3834375 6.35195312 -0.75 7.0625 C-1.26820313 8.10083984 -1.26820313 8.10083984 -1.796875 9.16015625 C-3 11 -3 11 -6 13 C-5.51675181 7.84535266 -2.81389239 4.18449681 0 0 Z " fill="#3B3C20" transform="translate(341,180)"/>
<path d="M0 0 C0 3 0 3 -1.53125 4.82421875 C-2.1809375 5.43910156 -2.830625 6.05398437 -3.5 6.6875 C-4.1496875 7.31011719 -4.799375 7.93273438 -5.46875 8.57421875 C-5.9740625 9.04472656 -6.479375 9.51523437 -7 10 C-7.66 9.67 -8.32 9.34 -9 9 C-8.06725891 7.87105124 -7.12859878 6.74699124 -6.1875 5.625 C-5.66542969 4.99851562 -5.14335938 4.37203125 -4.60546875 3.7265625 C-3 2 -3 2 0 0 Z " fill="#E9C54C" transform="translate(127,26)"/>
<path d="M0 0 C0.66 0.33 1.32 0.66 2 1 C1.0919838 2.13199353 0.17316174 3.25532363 -0.75 4.375 C-1.26046875 5.00148437 -1.7709375 5.62796875 -2.296875 6.2734375 C-4.08199481 8.08312318 -5.67949644 9.00117455 -8 10 C-6.34908222 5.70761377 -3.26245434 3.1206085 0 0 Z " fill="#3F4120" transform="translate(149,234)"/>
<path d="M0 0 C0.66 0.33 1.32 0.66 2 1 C-0.31 4.96 -2.62 8.92 -5 13 C-5.66 12.34 -6.32 11.68 -7 11 C-6.02262231 9.35310365 -5.0430468 7.70751146 -4.0625 6.0625 C-3.51722656 5.14597656 -2.97195313 4.22945312 -2.41015625 3.28515625 C-1 1 -1 1 0 0 Z " fill="#3D401E" transform="translate(340,161)"/>
<path d="M0 0 C3.77545388 1.09068668 6.47043472 1.9083091 9 5 C7.35 4.67 5.7 4.34 4 4 C3.34 5.32 2.68 6.64 2 8 C1.34 5.36 0.68 2.72 0 0 Z " fill="#BAB56B" transform="translate(191,37)"/>
<path d="M0 0 C1 3 1 3 0.22265625 4.82421875 C-0.8515625 6.54947917 -1.92578125 8.27473958 -3 10 C-3.68707555 7.50935112 -4 5.62113708 -4 3 C-3.01 3 -2.02 3 -1 3 C-0.67 2.01 -0.34 1.02 0 0 Z " fill="#524C28" transform="translate(126,233)"/>
<path d="M0 0 C0.66 0.33 1.32 0.66 2 1 C0.68 3.64 -0.64 6.28 -2 9 C-2.99 9 -3.98 9 -5 9 C-5.33 9.66 -5.66 10.32 -6 11 C-6 8 -6 8 -4.6875 6.625 C-4.130625 6.08875 -3.57375 5.5525 -3 5 C-1.96642853 3.35394174 -0.95939668 1.69036558 0 0 Z " fill="#65452A" transform="translate(577,65)"/>
<path d="M0 0 C3.47162014 1.15720671 4.13156927 1.9425679 6 5 C6.6875 7.75 6.6875 7.75 7 10 C3.60582235 6.87378374 1.3937282 4.43458973 0 0 Z " fill="#5D3E27" transform="translate(429,108)"/>
<path d="M0 0 C-1.4562545 0.67119549 -2.91507867 1.33681807 -4.375 2 C-5.59316406 2.556875 -5.59316406 2.556875 -6.8359375 3.125 C-9 4 -9 4 -11 4 C-11 3.34 -11 2.68 -11 2 C-4.03571429 -1.34821429 -4.03571429 -1.34821429 0 0 Z " fill="#3C3C2B" transform="translate(98,266)"/>
<path d="M0 0 C0.94875 0.04125 1.8975 0.0825 2.875 0.125 C2.545 2.105 2.215 4.085 1.875 6.125 C1.215 6.125 0.555 6.125 -0.125 6.125 C0.205 4.805 0.535 3.485 0.875 2.125 C-1.105 2.125 -3.085 2.125 -5.125 2.125 C-3.125 0.125 -3.125 0.125 0 0 Z " fill="#E0C24A" transform="translate(104.125,31.875)"/>
<path d="M0 0 C0.33 0 0.66 0 1 0 C1.06058594 0.74765625 1.12117187 1.4953125 1.18359375 2.265625 C1.26738281 3.25046875 1.35117188 4.2353125 1.4375 5.25 C1.51871094 6.22453125 1.59992188 7.1990625 1.68359375 8.203125 C1.95074584 10.56461753 2.35371968 12.71901065 3 15 C2.01 14.34 1.02 13.68 0 13 C-0.29296875 9.9609375 -0.29296875 9.9609375 -0.1875 6.375 C-0.16042969 5.18648437 -0.13335937 3.99796875 -0.10546875 2.7734375 C-0.07066406 1.85820312 -0.03585938 0.94296875 0 0 Z " fill="#6E7149" transform="translate(251,128)"/>
<path d="M0 0 C-4.95 2.97 -4.95 2.97 -10 6 C-7.65701369 1.31402739 -5.4251219 -1.80837397 0 0 Z " fill="#45492C" transform="translate(128,15)"/>
<path d="M0 0 C0 0.99 0 1.98 0 3 C-4.34285714 7 -4.34285714 7 -7 7 C-5.66667905 3.00003714 -3.5042173 2.16217663 0 0 Z " fill="#474825" transform="translate(184,212)"/>
<path d="M0 0 C0.90105469 0.00902344 1.80210937 0.01804688 2.73046875 0.02734375 C3.41753906 0.03894531 4.10460937 0.05054688 4.8125 0.0625 C4.8125 0.3925 4.8125 0.7225 4.8125 1.0625 C2.1725 1.0625 -0.4675 1.0625 -3.1875 1.0625 C-3.1875 1.7225 -3.1875 2.3825 -3.1875 3.0625 C-4.8375 3.0625 -6.4875 3.0625 -8.1875 3.0625 C-8.1875 2.4025 -8.1875 1.7425 -8.1875 1.0625 C-5.17259443 0.05753148 -3.14568308 -0.04085303 0 0 Z " fill="#696B4F" transform="translate(373.1875,207.9375)"/>
<path d="M0 0 C0.66 0 1.32 0 2 0 C2 0.66 2 1.32 2 2 C2.99 2.33 3.98 2.66 5 3 C4.67 3.66 4.34 4.32 4 5 C3.34 4.67 2.68 4.34 2 4 C2.33 5.32 2.66 6.64 3 8 C2.34 8 1.68 8 1 8 C0.67 5.36 0.34 2.72 0 0 Z " fill="#DA9F46" transform="translate(44,123)"/>
<path d="M0 0 C1.4606285 2.64738916 2 3.89448334 2 7 C2.99 7.33 3.98 7.66 5 8 C4.01 8.495 4.01 8.495 3 9 C2.01 8.67 1.02 8.34 0 8 C-0.79953138 4.71303767 -1.09658936 3.28976808 0 0 Z " fill="#71743D" transform="translate(222,52)"/>
<path d="M0 0 C3.0916909 2.52956528 3.90931332 5.22454612 5 9 C3.0625 7.875 3.0625 7.875 1 6 C0.25 2.8125 0.25 2.8125 0 0 Z " fill="#4B3E1D" transform="translate(37,136)"/>
<path d="M0 0 C3.75376152 1.25125384 4.24073289 2.5652404 6 6 C6 6.66 6 7.32 6 8 C5.34 8 4.68 8 4 8 C2.68 5.36 1.36 2.72 0 0 Z " fill="#612F19" transform="translate(410,105)"/>
<path d="M0 0 C2 1 2 1 2 1 Z " fill="#000000" transform="translate(563,186)"/>
<path d="M0 0 C2 1 2 1 2 1 Z " fill="#7F0000" transform="translate(453,164)"/>
<path d="" fill="#BF3F3F" transform="translate(0,0)"/>
<path d="" fill="#7F0000" transform="translate(0,0)"/>
<path d="M0 0 C2 1 2 1 2 1 Z " fill="#7F7F7F" transform="translate(530,48)"/>
<path d="" fill="#000000" transform="translate(0,0)"/>
<path d="" fill="#0000FF" transform="translate(0,0)"/>
<path d="" fill="#FFFFFF" transform="translate(0,0)"/>
<path d="" fill="#FFFF00" transform="translate(0,0)"/>
<path d="" fill="#000000" transform="translate(0,0)"/>
<path d="" fill="#000000" transform="translate(0,0)"/>
<path d="" fill="#000000" transform="translate(0,0)"/>
<path d="" fill="#000000" transform="translate(0,0)"/>
<path d="" fill="#000000" transform="translate(0,0)"/>
<path d="" fill="#000000" transform="translate(0,0)"/>
<path d="" fill="#FFFFFF" transform="translate(0,0)"/>
<path d="" fill="#000000" transform="translate(0,0)"/>
<path d="" fill="#000000" transform="translate(0,0)"/>
<path d="" fill="#FF0000" transform="translate(0,0)"/>
<path d="" fill="#FF0000" transform="translate(0,0)"/>
<path d="" fill="#FFFFFF" transform="translate(0,0)"/>
<path d="" fill="#FFFFFF" transform="translate(0,0)"/>
<path d="" fill="#000000" transform="translate(0,0)"/>
<path d="" fill="#FF0000" transform="translate(0,0)"/>
<path d="" fill="#000000" transform="translate(0,0)"/>
<path d="" fill="#000000" transform="translate(0,0)"/>
<path d="" fill="#FF0000" transform="translate(0,0)"/>
<path d="" fill="#000000" transform="translate(0,0)"/>
<path d="" fill="#FF0000" transform="translate(0,0)"/>
<path d="" fill="#000000" transform="translate(0,0)"/>
<path d="" fill="#FFFF00" transform="translate(0,0)"/>
<path d="" fill="#FF0000" transform="translate(0,0)"/>
<path d="" fill="#FF0000" transform="translate(0,0)"/>
<path d="" fill="#000000" transform="translate(0,0)"/>
<path d="" fill="#000000" transform="translate(0,0)"/>
<path d="" fill="#FF0000" transform="translate(0,0)"/>
<path d="" fill="#FF0000" transform="translate(0,0)"/>
<path d="" fill="#FFFF00" transform="translate(0,0)"/>
</svg>
